0
SECTION
2
HEADER
9
$INSUNITS
70
4
9
$ACADVER
1
AC1014
9
$HANDSEED
5
FFFF
0
ENDSEC
0
SECTION
2
TABLES
0
TABLE
2
VPORT
5
8
100
AcDbSymbolTable
0
ENDTAB
0
TABLE
2
LTYPE
5
5
100
AcDbSymbolTable
0
LTYPE
5
14
100
AcDbSymbolTableRecord
100
AcDbLinetypeTableRecord
2
BYBLOCK
70
0
0
LTYPE
5
15
100
AcDbSymbolTableRecord
100
AcDbLinetypeTableRecord
2
BYLAYER
70
0
0
ENDTAB
0
TABLE
2
LAYER
5
2
100
AcDbSymbolTable
70
2
0
LAYER
5
50
100
AcDbSymbolTableRecord
100
AcDbLayerTableRecord
2
0
70
0
6
CONTINUOUS
0
ENDTAB
0
TABLE
2
STYLE
5
3
100
AcDbSymbolTable
70
1
0
STYLE
5
11
100
AcDbSymbolTableRecord
100
AcDbTextStyleTableRecord
2
STANDARD
70
0
0
ENDTAB
0
TABLE
2
VIEW
5
6
100
AcDbSymbolTable
70
0
0
ENDTAB
0
TABLE
2
UCS
5
7
100
AcDbSymbolTable
70
0
0
ENDTAB
0
TABLE
2
APPID
5
9
100
AcDbSymbolTable
70
2
0
APPID
5
12
100
AcDbSymbolTableRecord
100
AcDbRegAppTableRecord
2
ACAD
70
0
0
ENDTAB
0
TABLE
2
DIMSTYLE
5
A
100
AcDbSymbolTable
70
1
0
ENDTAB
0
TABLE
2
BLOCK_RECORD
5
1
100
AcDbSymbolTable
70
1
0
BLOCK_RECORD
5
1F
100
AcDbSymbolTableRecord
100
AcDbBlockTableRecord
2
*MODEL_SPACE
0
BLOCK_RECORD
5
1B
100
AcDbSymbolTableRecord
100
AcDbBlockTableRecord
2
*PAPER_SPACE
0
ENDTAB
0
ENDSEC
0
SECTION
2
BLOCKS
0
BLOCK
5
20
100
AcDbEntity
100
AcDbBlockBegin
2
*MODEL_SPACE
0
ENDBLK
5
21
100
AcDbEntity
100
AcDbBlockEnd
0
BLOCK
5
1C
100
AcDbEntity
100
AcDbBlockBegin
2
*PAPER_SPACE
0
ENDBLK
5
1D
100
AcDbEntity
100
AcDbBlockEnd
0
ENDSEC
0
SECTION
2
ENTITIES
0
LWPOLYLINE
5
100
100
AcDbEntity
8
0
100
AcDbPolyline
90
76
70
1
43
0.0
10
-354.90100244114501
20
-36.578233205319307
10
-354.90100244114501
20
-26.575996921744004
10
-340.90100323275004
20
-26.575996921744004
10
-340.90100323275004
20
-40.575996130138101
10
-354.90100244114501
20
-40.575996130138101
10
-354.90100244114495
20
-40.421767942070197
42
-0.17743068958549504
10
-356.52108833706103
20
-40.999911673327134
10
-360.36522788537502
20
-40.999911673327098
10
-360.36522788537502
20
-78.709436030674794
10
-356.49846614752101
20
-78.709436030674766
42
-1.0199214069936307
10
-356.49854548905301
20
-83.708463442213429
10
-360.36522788537502
20
-83.7084634422135
10
-360.36522788537502
20
-101.45686385638599
42
0.41421356237309503
10
-358.86522788537502
20
-102.95686385638601
10
-328.86522788537502
20
-102.95686385638601
10
-328.86522788537502
20
-105.95686385638601
42
0.41421356237309503
10
-327.36522788537508
20
-107.45686385638601
10
-280.96522788537499
20
-107.45686385638599
42
0.41421356237309503
10
-279.46522788537499
20
-105.95686385638601
10
-279.46522788537499
20
-102.95686385638601
10
-202.698188883054
20
-102.95686385638601
10
-202.698188883054
20
-105.95686385638601
42
0.41421356237309503
10
-201.19818888305403
20
-107.45686385638601
10
-154.79818888305499
20
-107.45686385638599
42
0.41421356237309503
10
-153.29818888305499
20
-105.95686385638601
10
-153.29818888305499
20
-102.95686385638601
10
-82.698188883053916
20
-102.95686385638601
10
-82.698188883053916
20
-105.95686385638601
42
0.41421356237309503
10
-81.198188883053803
20
-107.45686385638601
10
-34.7981888830546
20
-107.45686385638599
42
0.41421356237309503
10
-33.2981888830546
20
-105.95686385638601
10
-33.2981888830546
20
-102.95686385638601
10
-3.2981888830550909
20
-102.95686385638601
42
0.41421356237309725
10
-1.7981888830550796
20
-101.45686385638599
10
-1.7981888830550803
20
-83.630096112245198
10
-6.8183269840640115
20
-83.630096112245198
10
-6.8183269840319394
20
-83.6265461465116
42
-0.99999999999999989
10
-6.6420133109175001
20
-78.629655764616786
10
-1.7981888830550803
20
-78.6296557646168
10
-1.7981888830550901
20
-25.280130124405904
10
-7.1429272706892473
20
-25.280130123807968
42
-1.0003986612724496
10
-7.1429272706882996
20
-20.28013052097663
10
-1.7981888830550896
20
-20.280130520976599
10
-1.7981888830550901
20
-3.4400905795257497
42
0.41421356237309498
10
-3.2981888830550998
20
-1.9400905795257501
10
-8.0937384824917871
20
-1.9400905795257466
42
-0.81226994891618898
10
-16.902639283618413
20
-1.9400905795257533
10
-33.298188883055097
20
-1.9400905795257501
10
-33.298188883055097
20
1.3599094204742497
42
0.41421356237309315
10
-34.798188883055097
20
2.8599094204742399
10
-81.198188883055096
20
2.8599094204742399
42
0.41421356237309886
10
-82.698188883055096
20
1.3599094204742201
10
-82.698188883055096
20
-1.9400905795257497
10
-116.0937384824917
20
-1.940090579525813
42
-0.81226994891617732
10
-124.9026392836183
20
-1.9400905795258117
10
-153.29818888305499
20
-1.9400905795257501
10
-153.29818888305499
20
1.3599094204742497
42
0.41421356237309315
10
-154.79818888305499
20
2.8599094204742403
10
-201.19818888305502
20
2.8599094204742501
42
0.41421356237309703
10
-202.69818888305502
20
1.3599094204742297
10
-202.69818888305502
20
-1.9400905795257497
10
-237.26077748481265
20
-1.9400905795256169
42
-0.81226994891619619
10
-246.06967828593935
20
-1.9400905795258159
10
-279.46522788537499
20
-1.9400905795257501
10
-279.46522788537499
20
1.3599094204742395
42
0.41421356237309509
10
-280.96522788537499
20
2.8599094204742403
10
-327.36522788537508
20
2.8599094204742399
42
0.41421356237309503
10
-328.86522788537502
20
1.3599094204742399
10
-328.86522788537502
20
-1.9400905795257497
10
-345.26077748481271
20
-1.9400905795256258
42
-0.81226994891619464
10
-354.06967828593935
20
-1.9400905795258234
10
-358.86522788537502
20
-1.9400905795257501
42
0.41421356237309503
10
-360.36522788537502
20
-3.4400905795257604
10
-360.36522788537502
20
-35.999999195337303
10
-356.52108833706103
20
-35.999999195337303
10
-356.52108833706103
20
-36.000089474062399
42
-0.17743068958549504
0
LWPOLYLINE
5
101
100
AcDbEntity
8
0
100
AcDbPolyline
90
8
70
1
43
0.0
10
-149.57644743113801
20
-45.632867399020107
42
0.41421356237309503
10
-150.07644743113801
20
-46.1328673990201
10
-150.07644743113804
20
-59.1328673990201
42
0.41421356237309503
10
-149.57644743113801
20
-59.6328673990201
10
-136.57644743113801
20
-59.6328673990201
42
0.41421356237309503
10
-136.07644743113804
20
-59.1328673990201
10
-136.07644743113801
20
-46.1328673990201
42
0.41421356237309503
10
-136.57644743113801
20
-45.632867399020107
0
LWPOLYLINE
5
102
100
AcDbEntity
8
0
100
AcDbPolyline
90
8
70
1
43
0.0
10
-108.00144743113802
20
-40.582867399020103
10
-121.00144743113802
20
-40.582867399020117
42
-0.41421356237309503
10
-121.50144743113802
20
-40.08286739902011
10
-121.50144743113802
20
-27.082867399020103
42
-0.41421356237309503
10
-121.00144743113802
20
-26.582867399020103
10
-108.00144743113802
20
-26.582867399020095
42
-0.41421356237309503
10
-107.501447431138
20
-27.082867399020103
10
-107.501447431138
20
-40.08286739902011
42
-0.41421356237309503
0
LWPOLYLINE
5
103
100
AcDbEntity
8
0
100
AcDbPolyline
90
8
70
1
43
0.0
10
-126.551447431138
20
-27.082867399020103
42
0.41421356237309503
10
-127.051447431138
20
-26.582867399020095
10
-140.051447431138
20
-26.582867399020103
42
0.41421356237309503
10
-140.551447431138
20
-27.082867399020103
10
-140.55144743113803
20
-40.08286739902011
42
0.41421356237309503
10
-140.051447431138
20
-40.582867399020103
10
-127.051447431138
20
-40.582867399020103
42
0.41421356237309503
10
-126.55144743113802
20
-40.08286739902011
0
LWPOLYLINE
5
104
100
AcDbEntity
8
0
100
AcDbPolyline
90
8
70
1
43
0.0
10
-40.038947431138297
20
-83.732867399020108
10
-27.0389474311383
20
-83.732867399020108
42
-0.41421356237309503
10
-26.538947431138304
20
-84.232867399020094
10
-26.538947431138293
20
-97.232867399020094
42
-0.41421356237309503
10
-27.0389474311383
20
-97.732867399020108
10
-40.038947431138297
20
-97.73286739902008
42
-0.41421356237309503
10
-40.538947431138297
20
-97.232867399020094
10
-40.53894743113829
20
-84.232867399020094
42
-0.41421356237309503
0
LWPOLYLINE
5
105
100
AcDbEntity
8
0
100
AcDbPolyline
90
8
70
1
43
0.0
10
-40.826447431138305
20
-46.1328673990201
10
-40.826447431138305
20
-59.1328673990201
42
-0.41421356237309503
10
-41.326447431138298
20
-59.6328673990201
10
-54.326447431138199
20
-59.6328673990201
42
-0.41421356237309503
10
-54.826447431138199
20
-59.1328673990201
10
-54.826447431138199
20
-46.1328673990201
42
-0.41421356237309503
10
-54.326447431138199
20
-45.632867399020107
10
-41.326447431138298
20
-45.632867399020107
42
-0.41421356237309503
0
LWPOLYLINE
5
106
100
AcDbEntity
8
0
100
AcDbPolyline
90
8
70
1
43
0.0
10
-44.8014474311383
20
-26.582867399020103
42
0.41421356237309503
10
-45.3014474311383
20
-27.082867399020103
10
-45.3014474311383
20
-40.08286739902011
42
0.41421356237309503
10
-44.8014474311383
20
-40.582867399020103
10
-31.801447431138303
20
-40.582867399020103
42
0.41421356237309503
10
-31.3014474311383
20
-40.08286739902011
10
-31.301447431138307
20
-27.082867399020103
42
0.41421356237309503
10
-31.801447431138303
20
-26.582867399020103
0
LWPOLYLINE
5
107
100
AcDbEntity
8
0
100
AcDbPolyline
90
8
70
1
43
0.0
10
-200.37019743113802
20
-8.0328673990201604
10
-200.370197431138
20
-21.032867399020205
42
-0.41421356237309503
10
-200.870197431138
20
-21.532867399020201
10
-213.870197431138
20
-21.532867399020212
42
-0.41421356237309503
10
-214.37019743113802
20
-21.032867399020205
10
-214.37019743113802
20
-8.0328673990201604
42
-0.41421356237309503
10
-213.870197431138
20
-7.5328673990201533
10
-200.870197431138
20
-7.5328673990201889
42
-0.41421356237309503
0
LWPOLYLINE
5
108
100
AcDbEntity
8
0
100
AcDbPolyline
90
8
70
1
43
0.0
10
-184.20144743113804
20
-40.582867399020103
42
0.41421356237309503
10
-183.70144743113801
20
-40.08286739902011
10
-183.70144743113801
20
-27.082867399020103
42
0.41421356237309503
10
-184.20144743113804
20
-26.582867399020103
10
-197.20144743113804
20
-26.582867399020103
42
0.41421356237309503
10
-197.70144743113804
20
-27.082867399020103
10
-197.70144743113804
20
-40.08286739902011
42
0.41421356237309503
10
-197.20144743113804
20
-40.582867399020103
0
LWPOLYLINE
5
109
100
AcDbEntity
8
0
100
AcDbPolyline
90
8
70
1
43
0.0
10
-203.25144743113799
20
-40.582867399020103
42
0.41421356237309503
10
-202.75144743113799
20
-40.08286739902011
10
-202.75144743113802
20
-27.082867399020103
42
0.41421356237309503
10
-203.25144743113799
20
-26.582867399020103
10
-216.25144743113799
20
-26.582867399020103
42
0.41421356237309503
10
-216.75144743113802
20
-27.082867399020103
10
-216.75144743113802
20
-40.08286739902011
42
0.41421356237309503
10
-216.25144743113799
20
-40.582867399020103
0
LWPOLYLINE
5
110
100
AcDbEntity
8
0
100
AcDbPolyline
90
8
70
1
43
0.0
10
-271.020197431138
20
-26.582867399020103
10
-258.02019743113806
20
-26.582867399020095
42
-0.41421356237309503
10
-257.520197431138
20
-27.082867399020103
10
-257.520197431138
20
-40.08286739902011
42
-0.41421356237309503
10
-258.02019743113806
20
-40.582867399020103
10
-271.020197431138
20
-40.582867399020117
42
-0.41421356237309503
10
-271.520197431138
20
-40.08286739902011
10
-271.520197431138
20
-27.082867399020103
42
-0.41421356237309503
0
LWPOLYLINE
5
111
100
AcDbEntity
8
0
100
AcDbPolyline
90
8
70
1
43
0.0
10
-248.49519743113802
20
-21.532867399020201
42
0.41421356237309503
10
-247.99519743113802
20
-21.032867399020205
10
-247.99519743113802
20
-8.0328673990201604
42
0.41421356237309503
10
-248.49519743113802
20
-7.5328673990201711
10
-261.49519743113802
20
-7.5328673990201711
42
0.41421356237309503
10
-261.99519743113802
20
-8.0328673990201604
10
-261.99519743113802
20
-21.032867399020205
42
0.41421356237309503
10
-261.49519743113802
20
-21.532867399020201
0
LWPOLYLINE
5
112
100
AcDbEntity
8
0
100
AcDbPolyline
90
8
70
1
43
0.0
10
-256.35094743113802
20
-83.232867399020094
10
-256.35094743113802
20
-96.232867399020108
42
-0.41421356237309503
10
-256.85094743113802
20
-96.732867399020094
10
-262.60094743113802
20
-96.732867399020108
42
-0.41421356237309503
10
-263.10094743113802
20
-96.232867399020108
10
-263.10094743113802
20
-83.232867399020094
42
-0.41421356237309503
10
-262.60094743113802
20
-82.732867399020108
10
-256.85094743113802
20
-82.73286739902008
42
-0.41421356237309503
0
LWPOLYLINE
5
113
100
AcDbEntity
8
0
100
AcDbPolyline
90
8
70
1
43
0.0
10
-82.55769743113818
20
-7.0328673990201596
42
0.41421356237309503
10
-83.057697431138195
20
-6.5328673990201525
10
-88.807697431138195
20
-6.5328673990201525
42
0.41421356237309503
10
-89.307697431138195
20
-7.0328673990201596
10
-89.307697431138209
20
-20.032867399020201
42
0.41421356237309503
10
-88.807697431138195
20
-20.532867399020201
10
-83.057697431138195
20
-20.532867399020191
42
0.41421356237309503
10
-82.557697431138195
20
-20.032867399020201
0
LWPOLYLINE
5
114
100
AcDbEntity
8
0
100
AcDbPolyline
90
8
70
1
43
0.0
10
-140.838947431138
20
-84.232867399020094
10
-140.838947431138
20
-97.232867399020094
42
-0.41421356237309503
10
-141.338947431138
20
-97.732867399020108
10
-154.338947431138
20
-97.732867399020108
42
-0.41421356237309503
10
-154.83894743113802
20
-97.232867399020094
10
-154.83894743113802
20
-84.232867399020094
42
-0.41421356237309503
10
-154.338947431138
20
-83.73286739902008
10
-141.338947431138
20
-83.732867399020108
42
-0.41421356237309503
0
LWPOLYLINE
5
115
100
AcDbEntity
8
0
100
AcDbPolyline
90
8
70
1
43
0.0
10
-164.651447431138
20
-27.082867399020103
42
0.41421356237309503
10
-165.15144743113802
20
-26.582867399020095
10
-178.15144743113802
20
-26.582867399020103
42
0.41421356237309503
10
-178.651447431138
20
-27.082867399020103
10
-178.65144743113802
20
-40.08286739902011
42
0.41421356237309503
10
-178.15144743113802
20
-40.582867399020103
10
-165.15144743113802
20
-40.582867399020103
42
0.41421356237309503
10
-164.651447431138
20
-40.08286739902011
0
LWPOLYLINE
5
116
100
AcDbEntity
8
0
100
AcDbPolyline
90
8
70
1
43
0.0
10
-47.182697431138301
20
-7.5328673990201498
10
-34.182697431138308
20
-7.5328673990201622
42
-0.41421356237309503
10
-33.682697431138308
20
-8.0328673990201604
10
-33.682697431138308
20
-21.032867399020205
42
-0.41421356237309503
10
-34.182697431138308
20
-21.532867399020201
10
-47.182697431138301
20
-21.532867399020201
42
-0.41421356237309503
10
-47.682697431138301
20
-21.032867399020205
10
-47.682697431138308
20
-8.0328673990201604
42
-0.41421356237309503
0
LWPOLYLINE
5
117
100
AcDbEntity
8
0
100
AcDbPolyline
90
8
70
1
43
0.0
10
-271.30769743113802
20
-53.594867399020103
42
0.41421356237309503
10
-270.80769743113802
20
-53.094867399020103
10
-270.80769743113802
20
-47.344867399020103
42
0.41421356237309503
10
-271.30769743113802
20
-46.844867399020103
10
-284.30769743113802
20
-46.844867399020103
42
0.41421356237309503
10
-284.80769743113802
20
-47.344867399020103
10
-284.80769743113802
20
-53.094867399020103
42
0.41421356237309503
10
-284.30769743113802
20
-53.594867399020103
0
LWPOLYLINE
5
118
100
AcDbEntity
8
0
100
AcDbPolyline
90
8
70
1
43
0.0
10
-285.30769743113802
20
-55.157867399020105
42
0.41421356237309503
10
-285.80769743113808
20
-55.657867399020098
10
-285.80769743113808
20
-68.657867399020105
42
0.41421356237309503
10
-285.30769743113802
20
-69.157867399020105
10
-272.30769743113802
20
-69.157867399020105
42
0.41421356237309503
10
-271.80769743113802
20
-68.657867399020105
10
-271.80769743113802
20
-55.657867399020098
42
0.41421356237309503
10
-272.30769743113802
20
-55.157867399020105
0
LWPOLYLINE
5
119
100
AcDbEntity
8
0
100
AcDbPolyline
90
8
70
1
43
0.0
10
-273.08319743113799
20
-26.082867399020099
10
-273.08319743113799
20
-39.082867399020103
42
-0.41421356237309503
10
-273.58319743113799
20
-39.582867399020103
10
-279.33319743113799
20
-39.58286739902011
42
-0.41421356237309503
10
-279.83319743113799
20
-39.082867399020103
10
-279.83319743113799
20
-26.082867399020099
42
-0.41421356237309503
10
-279.33319743113799
20
-25.582867399020103
10
-273.58319743113799
20
-25.582867399020092
42
-0.41421356237309503
0
LWPOLYLINE
5
120
100
AcDbEntity
8
0
100
AcDbPolyline
90
8
70
1
43
0.0
10
-321.81394743113799
20
-84.232867399020094
10
-321.81394743113799
20
-97.232867399020094
42
-0.41421356237309503
10
-322.31394743113805
20
-97.732867399020108
10
-335.31394743113799
20
-97.732867399020066
42
-0.41421356237309503
10
-335.81394743113799
20
-97.232867399020094
10
-335.81394743113805
20
-84.232867399020094
42
-0.41421356237309503
10
-335.31394743113799
20
-83.73286739902008
10
-322.31394743113805
20
-83.732867399020051
42
-0.41421356237309503
0
LWPOLYLINE
5
121
100
AcDbEntity
8
0
100
AcDbPolyline
90
8
70
1
43
0.0
10
-302.76394743113798
20
-8.0328673990201604
42
0.41421356237309503
10
-303.26394743113798
20
-7.5328673990201533
10
-316.26394743113798
20
-7.5328673990201711
42
0.41421356237309503
10
-316.76394743113798
20
-8.0328673990201604
10
-316.76394743113798
20
-21.032867399020205
42
0.41421356237309503
10
-316.26394743113798
20
-21.532867399020201
10
-303.26394743113798
20
-21.532867399020201
42
0.41421356237309503
10
-302.76394743113798
20
-21.032867399020205
0
LWPOLYLINE
5
122
100
AcDbEntity
8
0
100
AcDbPolyline
90
8
70
1
43
0.0
10
-322.31394743113805
20
-21.532867399020201
10
-335.31394743113799
20
-21.532867399020073
42
-0.41421356237309503
10
-335.81394743113799
20
-21.032867399020102
10
-335.81394743113805
20
-8.0328673990201604
42
-0.41421356237309503
10
-335.31394743113799
20
-7.5328673990201533
10
-322.31394743113805
20
-7.5328673990201889
42
-0.41421356237309503
10
-321.81394743113805
20
-8.0328673990201604
10
-321.81394743113805
20
-21.032867399020205
42
-0.41421356237309503
0
LWPOLYLINE
5
123
100
AcDbEntity
8
0
100
AcDbPolyline
90
8
70
1
43
0.0
10
-341.36394743113806
20
-97.732867399020108
42
0.41421356237309503
10
-340.86394743113806
20
-97.232867399020094
10
-340.863947431138
20
-84.232867399020094
42
0.41421356237309503
10
-341.36394743113806
20
-83.732867399020108
10
-354.363947431138
20
-83.73286739902008
42
0.41421356237309503
10
-354.863947431138
20
-84.232867399020094
10
-354.86394743113806
20
-97.232867399020094
42
0.41421356237309503
10
-354.363947431138
20
-97.732867399020108
0
LWPOLYLINE
5
124
100
AcDbEntity
8
0
100
AcDbPolyline
90
8
70
1
43
0.0
10
-285.80769743113808
20
-21.032867399020205
10
-285.80769743113808
20
-8.0328673990201604
42
-0.41421356237309503
10
-285.30769743113802
20
-7.5328673990201533
10
-272.30769743113802
20
-7.5328673990201889
42
-0.41421356237309503
10
-271.80769743113808
20
-8.0328673990201604
10
-271.80769743113802
20
-21.032867399020205
42
-0.41421356237309503
10
-272.30769743113802
20
-21.532867399020201
10
-285.30769743113802
20
-21.532867399020212
42
-0.41421356237309503
0
LWPOLYLINE
5
125
100
AcDbEntity
8
0
100
AcDbPolyline
90
8
70
1
43
0.0
10
-168.62644743113802
20
-45.632867399020107
10
-155.62644743113799
20
-45.6328673990201
42
-0.41421356237309503
10
-155.12644743113799
20
-46.1328673990201
10
-155.12644743113799
20
-59.1328673990201
42
-0.41421356237309503
10
-155.62644743113799
20
-59.6328673990201
10
-168.62644743113802
20
-59.632867399020107
42
-0.41421356237309503
10
-169.12644743113802
20
-59.1328673990201
10
-169.12644743113802
20
-46.1328673990201
42
-0.41421356237309503
0
LWPOLYLINE
5
126
100
AcDbEntity
8
0
100
AcDbPolyline
90
8
70
1
43
0.0
10
-7.98894743113829
20
-97.732867399020108
42
0.41421356237309503
10
-7.4889474311382829
20
-97.232867399020094
10
-7.48894743113829
20
-84.232867399020094
42
0.41421356237309437
10
-7.9889474311382891
20
-83.732867399020108
10
-20.9889474311383
20
-83.73286739902008
42
0.41421356237309503
10
-21.4889474311383
20
-84.232867399020094
10
-21.4889474311383
20
-97.232867399020094
42
0.41421356237309503
10
-20.9889474311383
20
-97.732867399020108
0
LWPOLYLINE
5
127
100
AcDbEntity
8
0
100
AcDbPolyline
90
8
70
1
43
0.0
10
-131.81394743113799
20
-78.682867399020097
42
0.41421356237309503
10
-131.31394743113799
20
-78.182867399020097
10
-131.31394743113799
20
-65.182867399020097
42
0.41421356237309503
10
-131.81394743113799
20
-64.682867399020097
10
-144.81394743113799
20
-64.682867399020097
42
0.41421356237309503
10
-145.31394743113799
20
-65.182867399020097
10
-145.31394743113799
20
-78.182867399020097
42
0.41421356237309503
10
-144.81394743113799
20
-78.682867399020097
0
LWPOLYLINE
5
128
100
AcDbEntity
8
0
100
AcDbPolyline
90
8
70
1
43
0.0
10
-64.351447431138212
20
-40.08286739902011
10
-64.351447431138197
20
-27.082867399020103
42
-0.41421356237309503
10
-63.851447431138197
20
-26.582867399020103
10
-50.851447431138197
20
-26.582867399020103
42
-0.41421356237309503
10
-50.351447431138197
20
-27.082867399020103
10
-50.351447431138197
20
-40.08286739902011
42
-0.41421356237309503
10
-50.851447431138197
20
-40.582867399020103
10
-63.851447431138197
20
-40.582867399020117
42
-0.41421356237309503
0
LWPOLYLINE
5
129
100
AcDbEntity
8
0
100
AcDbPolyline
90
8
70
1
43
0.0
10
-236.08894743113802
20
-84.232867399020094
10
-236.08894743113802
20
-97.232867399020094
42
-0.41421356237309503
10
-236.58894743113802
20
-97.732867399020108
10
-249.58894743113802
20
-97.732867399020108
42
-0.41421356237309503
10
-250.08894743113802
20
-97.232867399020094
10
-250.08894743113802
20
-84.232867399020094
42
-0.41421356237309503
10
-249.58894743113802
20
-83.73286739902008
10
-236.58894743113802
20
-83.73286739902008
42
-0.41421356237309503
0
LWPOLYLINE
5
130
100
AcDbEntity
8
0
100
AcDbPolyline
90
8
70
1
43
0.0
10
-217.53894743113804
20
-97.732867399020108
10
-230.53894743113801
20
-97.732867399020108
42
-0.41421356237309503
10
-231.03894743113801
20
-97.232867399020094
10
-231.03894743113801
20
-84.232867399020094
42
-0.41421356237309503
10
-230.53894743113801
20
-83.73286739902008
10
-217.53894743113804
20
-83.73286739902008
42
-0.41421356237309503
10
-217.03894743113804
20
-84.232867399020094
10
-217.03894743113804
20
-97.232867399020094
42
-0.41421356237309503
0
LWPOLYLINE
5
131
100
AcDbEntity
8
0
100
AcDbPolyline
90
8
70
1
43
0.0
10
-207.51394743113804
20
-65.182867399020097
10
-207.51394743113806
20
-78.182867399020097
42
-0.41421356237309503
10
-208.01394743113804
20
-78.682867399020097
10
-221.01394743113801
20
-78.682867399020068
42
-0.41421356237309503
10
-221.51394743113798
20
-78.182867399020097
10
-221.51394743113801
20
-65.182867399020097
42
-0.41421356237309503
10
-221.01394743113801
20
-64.682867399020097
10
-208.01394743113804
20
-64.682867399020097
42
-0.41421356237309503
0
LWPOLYLINE
5
132
100
AcDbEntity
8
0
100
AcDbPolyline
90
8
70
1
43
0.0
10
-188.807697431138
20
-6.5328673990201525
42
0.41421356237309503
10
-189.307697431138
20
-7.0328673990201596
10
-189.30769743113797
20
-20.032867399020201
42
0.41421356237309503
10
-188.807697431138
20
-20.532867399020098
10
-183.057697431138
20
-20.532867399020201
42
0.41421356237309503
10
-182.557697431138
20
-20.032867399020201
10
-182.55769743113802
20
-7.0328673990201596
42
0.41421356237309503
10
-183.057697431138
20
-6.5328673990201604
0
LWPOLYLINE
5
133
100
AcDbEntity
8
0
100
AcDbPolyline
90
8
70
1
43
0.0
10
-259.11394743113806
20
-64.682867399020097
10
-246.11394743113803
20
-64.682867399020097
42
-0.41421356237309503
10
-245.613947431138
20
-65.182867399020097
10
-245.613947431138
20
-78.182867399020097
42
-0.41421356237309503
10
-246.11394743113803
20
-78.682867399020097
10
-259.11394743113806
20
-78.682867399020111
42
-0.41421356237309503
10
-259.61394743113806
20
-78.182867399020097
10
-259.61394743113806
20
-65.182867399020097
42
-0.41421356237309503
0
LWPOLYLINE
5
134
100
AcDbEntity
8
0
100
AcDbPolyline
90
8
70
1
43
0.0
10
-263.87644743113799
20
-45.632867399020107
42
0.41421356237309503
10
-264.37644743113799
20
-46.1328673990201
10
-264.37644743113799
20
-59.1328673990201
42
0.41421356237309503
10
-263.87644743113799
20
-59.6328673990201
10
-250.87644743113799
20
-59.6328673990201
42
0.41421356237309503
10
-250.37644743113802
20
-59.1328673990201
10
-250.37644743113799
20
-46.1328673990201
42
0.41421356237309503
10
-250.87644743113799
20
-45.632867399020107
0
LWPOLYLINE
5
135
100
AcDbEntity
8
0
100
AcDbPolyline
90
8
70
1
43
0.0
10
-14.632697431138302
20
-46.1328673990201
10
-14.632697431138304
20
-59.1328673990201
42
-0.41421356237309503
10
-15.132697431138302
20
-59.6328673990201
10
-28.1326974311383
20
-59.6328673990201
42
-0.41421356237309503
10
-28.632697431138297
20
-59.1328673990201
10
-28.632697431138297
20
-46.1328673990201
42
-0.41421356237309503
10
-28.1326974311383
20
-45.632867399020107
10
-15.132697431138302
20
-45.632867399020107
42
-0.41421356237309503
0
LWPOLYLINE
5
136
100
AcDbEntity
8
0
100
AcDbPolyline
90
8
70
1
43
0.0
10
-57.495197431138301
20
-8.0328673990201604
10
-57.495197431138301
20
-21.032867399020205
42
-0.41421356237309503
10
-57.995197431138301
20
-21.532867399020201
10
-70.995197431138195
20
-21.532867399020201
42
-0.41421356237309503
10
-71.495197431138195
20
-21.032867399020205
10
-71.495197431138209
20
-8.0328673990201604
42
-0.41421356237309503
10
-70.995197431138195
20
-7.5328673990201533
10
-57.995197431138301
20
-7.5328673990201622
42
-0.41421356237309503
0
LWPOLYLINE
5
137
100
AcDbEntity
8
0
100
AcDbPolyline
90
8
70
1
43
0.0
10
-79.4264474311382
20
-59.6328673990201
10
-92.4264474311382
20
-59.632867399020107
42
-0.41421356237309503
10
-92.9264474311382
20
-59.1328673990201
10
-92.926447431138186
20
-46.1328673990201
42
-0.41421356237309503
10
-92.4264474311382
20
-45.632867399020107
10
-79.4264474311382
20
-45.632867399020107
42
-0.41421356237309503
10
-78.926447431138214
20
-46.1328673990201
10
-78.926447431138214
20
-59.1328673990201
42
-0.41421356237309503
0
LWPOLYLINE
5
138
100
AcDbEntity
8
0
100
AcDbPolyline
90
8
70
1
43
0.0
10
-93.213947431138209
20
-65.182867399020097
42
0.41421356237309503
10
-93.713947431138195
20
-64.682867399020111
10
-106.71394743113801
20
-64.682867399020097
42
0.41421356237309503
10
-107.213947431138
20
-65.182867399020097
10
-107.21394743113802
20
-78.182867399020097
42
0.41421356237309503
10
-106.71394743113801
20
-78.682867399020097
10
-93.713947431138195
20
-78.682867399020097
42
0.41421356237309503
10
-93.213947431138195
20
-78.182867399020097
0
LWPOLYLINE
5
139
100
AcDbEntity
8
0
100
AcDbPolyline
90
8
70
1
43
0.0
10
-111.976447431138
20
-59.1328673990201
10
-111.97644743113801
20
-46.1328673990201
42
-0.41421356237309503
10
-111.47644743113801
20
-45.632867399020107
10
-98.476447431138197
20
-45.6328673990201
42
-0.41421356237309503
10
-97.976447431138197
20
-46.1328673990201
10
-97.976447431138212
20
-59.1328673990201
42
-0.41421356237309503
10
-98.476447431138197
20
-59.6328673990201
10
-111.47644743113801
20
-59.632867399020093
42
-0.41421356237309503
0
LWPOLYLINE
5
140
100
AcDbEntity
8
0
100
AcDbPolyline
90
8
70
1
43
0.0
10
-125.76394743113802
20
-64.682867399020097
42
0.41421356237309503
10
-126.26394743113801
20
-65.182867399020097
10
-126.26394743113804
20
-78.182867399020097
42
0.41421356237309503
10
-125.76394743113802
20
-78.682867399020097
10
-112.76394743113801
20
-78.682867399020097
42
0.41421356237309503
10
-112.26394743113801
20
-78.182867399020097
10
-112.26394743113801
20
-65.182867399020097
42
0.41421356237309503
10
-112.76394743113801
20
-64.682867399020097
0
LWPOLYLINE
5
141
100
AcDbEntity
8
0
100
AcDbPolyline
90
8
70
1
43
0.0
10
-202.46394743113797
20
-78.182867399020097
42
0.41421356237309503
10
-201.963947431138
20
-78.682867399020068
10
-188.963947431138
20
-78.682867399020097
42
0.41421356237309503
10
-188.46394743113802
20
-78.182867399020097
10
-188.46394743113797
20
-65.182867399020097
42
0.41421356237309503
10
-188.963947431138
20
-64.682867399020097
10
-201.963947431138
20
-64.682867399020097
42
0.41421356237309503
10
-202.463947431138
20
-65.182867399020097
0
LWPOLYLINE
5
142
100
AcDbEntity
8
0
100
AcDbPolyline
90
8
70
1
43
0.0
10
-131.026447431138
20
-59.1328673990201
10
-131.026447431138
20
-46.1328673990201
42
-0.41421356237309503
10
-130.526447431138
20
-45.632867399020107
10
-117.526447431138
20
-45.6328673990201
42
-0.41421356237309503
10
-117.026447431138
20
-46.1328673990201
10
-117.02644743113801
20
-59.1328673990201
42
-0.41421356237309503
10
-117.526447431138
20
-59.6328673990201
10
-130.526447431138
20
-59.632867399020093
42
-0.41421356237309503
0
LWPOLYLINE
5
143
100
AcDbEntity
8
0
100
AcDbPolyline
90
8
70
1
43
0.0
10
-128.932697431138
20
-8.0328673990201604
10
-128.93269743113802
20
-21.032867399020205
42
-0.41421356237309503
10
-129.432697431138
20
-21.532867399020201
10
-142.432697431138
20
-21.532867399020212
42
-0.41421356237309503
10
-142.932697431138
20
-21.032867399020205
10
-142.932697431138
20
-8.0328673990201604
42
-0.41421356237309503
10
-142.432697431138
20
-7.5328673990201533
10
-129.432697431138
20
-7.5328673990201533
42
-0.41421356237309503
0
LWPOLYLINE
5
144
100
AcDbEntity
8
0
100
AcDbPolyline
90
8
70
1
43
0.0
10
-59.876447431138303
20
-46.1328673990201
10
-59.876447431138203
20
-59.1328673990201
42
-0.41421356237309503
10
-60.376447431138203
20
-59.6328673990201
10
-73.376447431138203
20
-59.6328673990201
42
-0.41421356237309503
10
-73.876447431138203
20
-59.1328673990201
10
-73.876447431138203
20
-46.1328673990201
42
-0.41421356237309503
10
-73.376447431138203
20
-45.632867399020107
10
-60.376447431138203
20
-45.632867399020199
42
-0.41421356237309503
0
LWPOLYLINE
5
145
100
AcDbEntity
8
0
100
AcDbPolyline
90
8
70
1
43
0.0
10
-74.163947431138197
20
-65.182867399020097
10
-74.163947431138212
20
-78.182867399020097
42
-0.41421356237309503
10
-74.663947431138212
20
-78.682867399020097
10
-87.663947431138197
20
-78.682867399020111
42
-0.41421356237309503
10
-88.163947431138197
20
-78.182867399020097
10
-88.163947431138183
20
-65.182867399020097
42
-0.41421356237309503
10
-87.663947431138197
20
-64.682867399020097
10
-74.663947431138212
20
-64.682867399020097
42
-0.41421356237309503
0
LWPOLYLINE
5
146
100
AcDbEntity
8
0
100
AcDbPolyline
90
8
70
1
43
0.0
10
-65.138947431138206
20
-97.732867399020108
42
0.41421356237309503
10
-64.638947431138206
20
-97.232867399020094
10
-64.638947431138206
20
-84.232867399020094
42
0.41421356237309503
10
-65.138947431138206
20
-83.732867399020108
10
-78.138947431138206
20
-83.73286739902008
42
0.41421356237309503
10
-78.638947431138206
20
-84.232867399020094
10
-78.638947431138206
20
-97.232867399020094
42
0.41421356237309503
10
-78.138947431138206
20
-97.732867399020108
0
LWPOLYLINE
5
147
100
AcDbEntity
8
0
100
AcDbPolyline
90
8
70
1
43
0.0
10
-192.93894743113799
20
-97.232867399020094
10
-192.93894743113799
20
-84.232867399020094
42
-0.41421356237309503
10
-192.43894743113799
20
-83.73286739902008
10
-179.43894743113799
20
-83.73286739902008
42
-0.41421356237309503
10
-178.93894743113799
20
-84.232867399020094
10
-178.93894743113799
20
-97.232867399020094
42
-0.41421356237309503
10
-179.43894743113799
20
-97.732867399020108
10
-192.43894743113799
20
-97.732867399020108
42
-0.41421356237309503
0
LWPOLYLINE
5
148
100
AcDbEntity
8
0
100
AcDbPolyline
90
8
70
1
43
0.0
10
-221.801447431138
20
-27.082867399020103
10
-221.801447431138
20
-40.08286739902011
42
-0.41421356237309503
10
-222.301447431138
20
-40.582867399020103
10
-235.301447431138
20
-40.582867399020117
42
-0.41421356237309503
10
-235.80144743113803
20
-40.08286739902011
10
-235.80144743113803
20
-27.082867399020103
42
-0.41421356237309503
10
-235.301447431138
20
-26.582867399020103
10
-222.301447431138
20
-26.582867399020095
42
-0.41421356237309503
0
LWPOLYLINE
5
149
100
AcDbEntity
8
0
100
AcDbPolyline
90
8
70
1
43
0.0
10
-238.18269743113802
20
-21.032867399020205
10
-238.18269743113802
20
-8.0328673990201604
42
-0.41421356237309503
10
-237.68269743113802
20
-7.5328673990201533
10
-224.68269743113802
20
-7.5328673990201533
42
-0.41421356237309503
10
-224.182697431138
20
-8.0328673990201604
10
-224.182697431138
20
-21.032867399020205
42
-0.41421356237309503
10
-224.68269743113802
20
-21.532867399020201
10
-237.68269743113802
20
-21.532867399020212
42
-0.41421356237309503
0
LWPOLYLINE
5
150
100
AcDbEntity
8
0
100
AcDbPolyline
90
8
70
1
43
0.0
10
-212.776447431138
20
-59.6328673990201
10
-225.77644743113802
20
-59.632867399020107
42
-0.41421356237309503
10
-226.27644743113802
20
-59.1328673990201
10
-226.27644743113802
20
-46.1328673990201
42
-0.41421356237309503
10
-225.77644743113802
20
-45.632867399020107
10
-212.776447431138
20
-45.6328673990201
42
-0.41421356237309503
10
-212.276447431138
20
-46.1328673990201
10
-212.276447431138
20
-59.1328673990201
42
-0.41421356237309503
0
LWPOLYLINE
5
151
100
AcDbEntity
8
0
100
AcDbPolyline
90
8
70
1
43
0.0
10
-226.56394743113799
20
-65.182867399020097
10
-226.56394743113799
20
-78.182867399020097
42
-0.41421356237309503
10
-227.06394743113802
20
-78.682867399020097
10
-240.06394743113802
20
-78.682867399020111
42
-0.41421356237309503
10
-240.56394743113802
20
-78.182867399020097
10
-240.56394743113802
20
-65.182867399020097
42
-0.41421356237309503
10
-240.06394743113802
20
-64.682867399020097
10
-227.06394743113802
20
-64.682867399020097
42
-0.41421356237309503
0
LWPOLYLINE
5
152
100
AcDbEntity
8
0
100
AcDbPolyline
90
8
70
1
43
0.0
10
-249.70719743113804
20
-39.582867399020103
42
0.41421356237309503
10
-249.20719743113804
20
-39.082867399020103
10
-249.20719743113804
20
-26.082867399020099
42
0.41421356237309503
10
-249.70719743113804
20
-25.582867399020103
10
-255.45719743113804
20
-25.582867399020103
42
0.41421356237309503
10
-255.95719743113804
20
-26.082867399020099
10
-255.95719743113804
20
-39.082867399020103
42
0.41421356237309503
10
-255.45719743113804
20
-39.582867399020103
0
LWPOLYLINE
5
153
100
AcDbEntity
8
0
100
AcDbPolyline
90
8
70
1
43
0.0
10
-55.6139474311382
20
-78.682867399020097
10
-68.6139474311382
20
-78.682867399020111
42
-0.41421356237309503
10
-69.1139474311382
20
-78.182867399020097
10
-69.1139474311382
20
-65.182867399020097
42
-0.41421356237309503
10
-68.6139474311382
20
-64.682867399020097
10
-55.6139474311382
20
-64.682867399020097
42
-0.41421356237309503
10
-55.1139474311382
20
-65.182867399020097
10
-55.1139474311382
20
-78.182867399020097
42
-0.41421356237309503
0
LWPOLYLINE
5
154
100
AcDbEntity
8
0
100
AcDbPolyline
90
8
70
1
43
0.0
10
-135.28894743113801
20
-83.732867399020108
10
-122.288947431138
20
-83.73286739902008
42
-0.41421356237309503
10
-121.788947431138
20
-84.232867399020094
10
-121.788947431138
20
-97.232867399020094
42
-0.41421356237309503
10
-122.288947431138
20
-97.732867399020108
10
-135.28894743113801
20
-97.732867399020108
42
-0.41421356237309503
10
-135.78894743113804
20
-97.232867399020094
10
-135.78894743113801
20
-84.232867399020094
42
-0.41421356237309503
0
LWPOLYLINE
5
155
100
AcDbEntity
8
0
100
AcDbPolyline
90
8
70
1
43
0.0
10
-173.38894743113801
20
-83.73286739902008
42
0.41421356237309503
10
-173.88894743113804
20
-84.232867399020094
10
-173.88894743113804
20
-97.232867399020094
42
0.41421356237309503
10
-173.38894743113801
20
-97.732867399020108
10
-160.38894743113801
20
-97.732867399020108
42
0.41421356237309503
10
-159.88894743113801
20
-97.232867399020094
10
-159.88894743113798
20
-84.232867399020094
42
0.41421356237309503
10
-160.38894743113801
20
-83.732867399020108
0
LWPOLYLINE
5
156
100
AcDbEntity
8
0
100
AcDbPolyline
90
8
70
1
43
0.0
10
-23.370197431138301
20
-7.5328673990201711
42
0.41421356237309503
10
-23.870197431138291
20
-8.0328673990201604
10
-23.870197431138301
20
-21.032867399020205
42
0.41421356237309503
10
-23.370197431138301
20
-21.532867399020201
10
-10.370197431138299
20
-21.532867399020201
42
0.41421356237309503
10
-9.8701974311382905
20
-21.032867399020205
10
-9.8701974311382994
20
-8.0328673990201604
42
0.41421356237309503
10
-10.370197431138299
20
-7.5328673990201711
0
LWPOLYLINE
5
157
100
AcDbEntity
8
0
100
AcDbPolyline
90
8
70
1
43
0.0
10
-264.66394743113801
20
-84.232867399020094
10
-264.66394743113801
20
-97.232867399020094
42
-0.41421356237309503
10
-265.16394743113801
20
-97.732867399020108
10
-278.16394743113801
20
-97.732867399020108
42
-0.41421356237309503
10
-278.66394743113807
20
-97.232867399020094
10
-278.66394743113807
20
-84.232867399020094
42
-0.41421356237309503
10
-278.16394743113801
20
-83.73286739902008
10
-265.16394743113801
20
-83.73286739902008
42
-0.41421356237309503
0
LWPOLYLINE
5
158
100
AcDbEntity
8
0
100
AcDbPolyline
90
8
70
1
43
0.0
10
-335.31394743113799
20
-26.582867399020103
42
0.41421356237309503
10
-335.81394743113799
20
-27.082867399020103
10
-335.81394743113799
20
-40.08286739902011
42
0.41421356237309503
10
-335.31394743113799
20
-40.582867399020103
10
-322.31394743113805
20
-40.582867399020103
42
0.41421356237309503
10
-321.81394743113799
20
-40.08286739902011
10
-321.81394743113805
20
-27.082867399020103
42
0.41421356237309503
10
-322.31394743113805
20
-26.582867399020103
0
LWPOLYLINE
5
159
100
AcDbEntity
8
0
100
AcDbPolyline
90
8
70
1
43
0.0
10
-286.976947431138
20
-96.232867399020108
10
-286.976947431138
20
-83.232867399020094
42
-0.41421356237309503
10
-286.476947431138
20
-82.732867399020108
10
-280.726947431138
20
-82.73286739902008
42
-0.41421356237309503
10
-280.226947431138
20
-83.232867399020094
10
-280.226947431138
20
-96.232867399020108
42
-0.41421356237309503
10
-280.726947431138
20
-96.732867399020094
10
-286.476947431138
20
-96.73286739902008
42
-0.41421356237309503
0
LWPOLYLINE
5
160
100
AcDbEntity
8
0
100
AcDbPolyline
90
8
70
1
43
0.0
10
-322.31394743113805
20
-78.682867399020097
10
-335.31394743113799
20
-78.682867399020068
42
-0.41421356237309503
10
-335.81394743113799
20
-78.182867399020097
10
-335.81394743113799
20
-65.182867399020097
42
-0.41421356237309503
10
-335.31394743113799
20
-64.682867399020097
10
-322.31394743113805
20
-64.682867399020125
42
-0.41421356237309503
10
-321.81394743113805
20
-65.182867399020097
10
-321.81394743113805
20
-78.182867399020097
42
-0.41421356237309503
0
LWPOLYLINE
5
161
100
AcDbEntity
8
0
100
AcDbPolyline
90
8
70
1
43
0.0
10
-284.30769743113802
20
-70.720867399020108
42
0.41421356237309503
10
-284.80769743113802
20
-71.220867399020094
10
-284.80769743113802
20
-76.970867399020094
42
0.41421356237309503
10
-284.30769743113802
20
-77.470867399020094
10
-271.30769743113802
20
-77.470867399020079
42
0.41421356237309503
10
-270.80769743113808
20
-76.970867399020094
10
-270.80769743113802
20
-71.220867399020094
42
0.41421356237309503
10
-271.30769743113802
20
-70.720867399020094
0
LWPOLYLINE
5
162
100
AcDbEntity
8
0
100
AcDbPolyline
90
8
70
1
43
0.0
10
-316.76394743113798
20
-97.232867399020094
42
0.41421356237309503
10
-316.26394743113798
20
-97.732867399020108
10
-303.26394743113798
20
-97.732867399020108
42
0.41421356237309503
10
-302.76394743113798
20
-97.232867399020094
10
-302.76394743113798
20
-84.232867399020094
42
0.41421356237309503
10
-303.26394743113798
20
-83.732867399020108
10
-316.26394743113798
20
-83.73286739902008
42
0.41421356237309503
10
-316.76394743113798
20
-84.232867399020094
0
LWPOLYLINE
5
163
100
AcDbEntity
8
0
100
AcDbPolyline
90
8
70
1
43
0.0
10
-354.363947431138
20
-7.5328673990201498
10
-341.36394743113806
20
-7.5328673990201178
42
-0.41421356237309503
10
-340.863947431138
20
-8.0328673990201604
10
-340.86394743113806
20
-21.032867399020102
42
-0.41421356237309503
10
-341.36394743113806
20
-21.532867399020098
10
-354.363947431138
20
-21.532867399020144
42
-0.41421356237309503
10
-354.86394743113806
20
-21.032867399020102
10
-354.86394743113806
20
-8.0328673990201604
42
-0.41421356237309503
0
LWPOLYLINE
5
164
100
AcDbEntity
8
0
100
AcDbPolyline
90
8
70
1
43
0.0
10
-164.363947431138
20
-78.182867399020097
42
0.41421356237309503
10
-163.863947431138
20
-78.682867399020111
10
-150.863947431138
20
-78.682867399020097
42
0.41421356237309503
10
-150.363947431138
20
-78.182867399020097
10
-150.363947431138
20
-65.182867399020097
42
0.41421356237309503
10
-150.863947431138
20
-64.682867399020097
10
-163.863947431138
20
-64.682867399020097
42
0.41421356237309503
10
-164.363947431138
20
-65.182867399020097
0
LWPOLYLINE
5
165
100
AcDbEntity
8
0
100
AcDbPolyline
90
8
70
1
43
0.0
10
-159.60144743113804
20
-40.08286739902011
42
0.41421356237309503
10
-159.10144743113801
20
-40.582867399020117
10
-146.10144743113801
20
-40.582867399020103
42
0.41421356237309503
10
-145.60144743113801
20
-40.08286739902011
10
-145.60144743113801
20
-27.082867399020103
42
0.41421356237309503
10
-146.10144743113801
20
-26.582867399020103
10
-159.10144743113801
20
-26.582867399020103
42
0.41421356237309503
10
-159.60144743113801
20
-27.082867399020103
0
LWPOLYLINE
5
166
100
AcDbEntity
8
0
100
AcDbPolyline
90
8
70
1
43
0.0
10
-25.751447431138299
20
-64.682867399020097
10
-12.751447431138301
20
-64.682867399020097
42
-0.41421356237309503
10
-12.251447431138301
20
-65.182867399020097
10
-12.251447431138311
20
-78.182867399020097
42
-0.41421356237309503
10
-12.751447431138301
20
-78.682867399020097
10
-25.751447431138299
20
-78.682867399020097
42
-0.41421356237309503
10
-26.251447431138295
20
-78.182867399020097
10
-26.251447431138295
20
-65.182867399020097
42
-0.41421356237309503
0
LWPOLYLINE
5
167
100
AcDbEntity
8
0
100
AcDbPolyline
90
8
70
1
43
0.0
10
-83.40144743113818
20
-40.08286739902011
42
0.41421356237309503
10
-82.901447431138195
20
-40.582867399020095
10
-69.901447431138195
20
-40.582867399020103
42
0.41421356237309503
10
-69.401447431138195
20
-40.08286739902011
10
-69.401447431138209
20
-27.082867399020103
42
0.41421356237309503
10
-69.901447431138195
20
-26.582867399020103
10
-82.901447431138195
20
-26.582867399020103
42
0.41421356237309503
10
-83.401447431138195
20
-27.082867399020103
0
LWPOLYLINE
5
168
100
AcDbEntity
8
0
100
AcDbPolyline
90
8
70
1
43
0.0
10
-36.063947431138303
20
-65.182867399020097
10
-36.063947431138317
20
-78.182867399020097
42
-0.41421356237309503
10
-36.563947431138303
20
-78.682867399020097
10
-49.563947431138303
20
-78.682867399020097
42
-0.41421356237309503
10
-50.063947431138295
20
-78.182867399020097
10
-50.063947431138303
20
-65.182867399020097
42
-0.41421356237309503
10
-49.563947431138303
20
-64.682867399020097
10
-36.563947431138303
20
-64.682867399020097
42
-0.41421356237309503
0
LWPOLYLINE
5
169
100
AcDbEntity
8
0
100
AcDbPolyline
90
8
70
1
43
0.0
10
-354.363947431138
20
-64.682867399020097
10
-341.36394743113806
20
-64.682867399020125
42
-0.41421356237309503
10
-340.86394743113806
20
-65.182867399020097
10
-340.86394743113806
20
-78.182867399020097
42
-0.41421356237309503
10
-341.36394743113806
20
-78.682867399020097
10
-354.363947431138
20
-78.682867399020154
42
-0.41421356237309503
10
-354.86394743113806
20
-78.182867399020097
10
-354.863947431138
20
-65.182867399020097
42
-0.41421356237309503
0
LWPOLYLINE
5
170
100
AcDbEntity
8
0
100
AcDbPolyline
90
8
70
1
43
0.0
10
-302.76394743113798
20
-65.182867399020097
10
-302.76394743113798
20
-78.182867399020097
42
-0.41421356237309503
10
-303.26394743113798
20
-78.682867399020097
10
-316.26394743113798
20
-78.682867399020111
42
-0.41421356237309503
10
-316.76394743113798
20
-78.182867399020097
10
-316.76394743113798
20
-65.182867399020097
42
-0.41421356237309503
10
-316.26394743113798
20
-64.682867399020097
10
-303.26394743113798
20
-64.682867399020097
42
-0.41421356237309503
0
LWPOLYLINE
5
171
100
AcDbEntity
8
0
100
AcDbPolyline
90
8
70
1
43
0.0
10
-211.988947431138
20
-97.232867399020094
10
-211.988947431138
20
-84.232867399020094
42
-0.41421356237309503
10
-211.488947431138
20
-83.73286739902008
10
-198.48894743113803
20
-83.73286739902008
42
-0.41421356237309503
10
-197.98894743113803
20
-84.232867399020094
10
-197.98894743113803
20
-97.232867399020094
42
-0.41421356237309503
10
-198.48894743113803
20
-97.732867399020108
10
-211.488947431138
20
-97.732867399020108
42
-0.41421356237309503
0
LWPOLYLINE
5
172
100
AcDbEntity
8
0
100
AcDbPolyline
90
8
70
1
43
0.0
10
-187.67644743113803
20
-45.632867399020107
10
-174.676447431138
20
-45.6328673990201
42
-0.41421356237309503
10
-174.176447431138
20
-46.1328673990201
10
-174.176447431138
20
-59.1328673990201
42
-0.41421356237309503
10
-174.676447431138
20
-59.6328673990201
10
-187.67644743113803
20
-59.632867399020107
42
-0.41421356237309503
10
-188.17644743113803
20
-59.1328673990201
10
-188.17644743113803
20
-46.1328673990201
42
-0.41421356237309503
0
LWPOLYLINE
5
173
100
AcDbEntity
8
0
100
AcDbPolyline
90
8
70
1
43
0.0
10
-193.72644743113801
20
-59.6328673990201
42
0.41421356237309503
10
-193.22644743113801
20
-59.1328673990201
10
-193.22644743113801
20
-46.1328673990201
42
0.41421356237309503
10
-193.72644743113801
20
-45.632867399020107
10
-206.72644743113804
20
-45.632867399020107
42
0.41421356237309503
10
-207.22644743113804
20
-46.1328673990201
10
-207.22644743113804
20
-59.1328673990201
42
0.41421356237309503
10
-206.72644743113804
20
-59.6328673990201
0
LWPOLYLINE
5
174
100
AcDbEntity
8
0
100
AcDbPolyline
90
8
70
1
43
0.0
10
-245.32644743113804
20
-59.1328673990201
10
-245.32644743113804
20
-46.1328673990201
42
-0.41421356237309503
10
-244.82644743113804
20
-45.632867399020107
10
-231.82644743113801
20
-45.6328673990201
42
-0.41421356237309503
10
-231.32644743113801
20
-46.1328673990201
10
-231.32644743113801
20
-59.1328673990201
42
-0.41421356237309503
10
-231.82644743113801
20
-59.6328673990201
10
-244.82644743113804
20
-59.632867399020107
42
-0.41421356237309503
0
LWPOLYLINE
5
175
100
AcDbEntity
8
0
100
AcDbPolyline
90
8
70
1
43
0.0
10
-97.188947431138217
20
-83.732867399020108
10
-84.188947431138217
20
-83.732867399020108
42
-0.41421356237309503
10
-83.688947431138217
20
-84.232867399020094
10
-83.688947431138203
20
-97.232867399020094
42
-0.41421356237309503
10
-84.188947431138217
20
-97.732867399020108
10
-97.188947431138217
20
-97.73286739902008
42
-0.41421356237309503
10
-97.688947431138203
20
-97.232867399020094
10
-97.688947431138203
20
-84.232867399020094
42
-0.41421356237309503
0
LWPOLYLINE
5
176
100
AcDbEntity
8
0
100
AcDbPolyline
90
8
70
1
43
0.0
10
-46.088947431138301
20
-97.732867399020108
10
-59.088947431138301
20
-97.73286739902008
42
-0.41421356237309503
10
-59.588947431138301
20
-97.232867399020094
10
-59.588947431138308
20
-84.232867399020094
42
-0.41421356237309503
10
-59.088947431138301
20
-83.73286739902008
10
-46.088947431138301
20
-83.732867399020108
42
-0.41421356237309503
10
-45.588947431138308
20
-84.232867399020094
10
-45.588947431138294
20
-97.232867399020094
42
-0.41421356237309503
0
LWPOLYLINE
5
177
100
AcDbEntity
8
0
100
AcDbPolyline
90
8
70
1
43
0.0
10
-23.370197431138301
20
-26.582867399020103
42
0.41421356237309503
10
-23.870197431138301
20
-27.082867399020103
10
-23.870197431138301
20
-40.08286739902011
42
0.41421356237309503
10
-23.370197431138301
20
-40.582867399020103
10
-10.370197431138299
20
-40.582867399020103
42
0.41421356237309503
10
-9.8701974311382905
20
-40.08286739902011
10
-9.8701974311382994
20
-27.082867399020103
42
0.41421356237309503
10
-10.370197431138299
20
-26.582867399020103
0
LWPOLYLINE
5
178
100
AcDbEntity
8
0
100
AcDbPolyline
90
8
70
1
43
0.0
10
-102.738947431138
20
-84.232867399020094
10
-102.738947431138
20
-97.232867399020094
42
-0.41421356237309503
10
-103.238947431138
20
-97.732867399020108
10
-116.23894743113802
20
-97.732867399020108
42
-0.41421356237309503
10
-116.73894743113803
20
-97.232867399020094
10
-116.73894743113803
20
-84.232867399020094
42
-0.41421356237309503
10
-116.23894743113802
20
-83.73286739902008
10
-103.238947431138
20
-83.73286739902008
42
-0.41421356237309503
0
LWPOLYLINE
5
179
100
AcDbEntity
8
0
100
AcDbPolyline
90
8
70
1
43
0.0
10
-183.41394743113801
20
-78.182867399020097
42
0.41421356237309503
10
-182.91394743113801
20
-78.682867399020111
10
-169.91394743113801
20
-78.682867399020097
42
0.41421356237309503
10
-169.41394743113801
20
-78.182867399020097
10
-169.41394743113801
20
-65.182867399020097
42
0.41421356237309503
10
-169.91394743113801
20
-64.682867399020097
10
-182.91394743113801
20
-64.682867399020097
42
0.41421356237309503
10
-183.41394743113801
20
-65.182867399020097
0
LWPOLYLINE
5
180
100
AcDbEntity
8
0
100
AcDbPolyline
90
8
70
1
43
0.0
10
-88.951447431138206
20
-40.582867399020103
10
-101.95144743113801
20
-40.582867399020117
42
-0.41421356237309503
10
-102.45144743113801
20
-40.08286739902011
10
-102.45144743113801
20
-27.082867399020103
42
-0.41421356237309503
10
-101.95144743113801
20
-26.582867399020103
10
-88.951447431138206
20
-26.582867399020095
42
-0.41421356237309503
10
-88.451447431138206
20
-27.082867399020103
10
-88.451447431138206
20
-40.08286739902011
42
-0.41421356237309503
0
LWPOLYLINE
5
181
100
AcDbEntity
8
0
100
AcDbPolyline
90
4
70
1
43
0.0
10
-297.45398453620976
20
-94.756863856386104
42
0.99999999999999989
10
-293.33134830543429
20
-94.756863856386104
10
-293.33134830543429
20
-10.140090579525701
42
0.99999999999999989
10
-297.45398453620999
20
-10.140090579525705
0
LWPOLYLINE
5
182
100
AcDbEntity
8
0
100
AcDbPolyline
90
4
70
1
43
0.0
10
-302.80099928353297
20
-40.575996130138101
10
-316.800998491928
20
-40.575996130138101
10
-316.800998491928
20
-26.575996921744004
10
-302.80099928353297
20
-26.575996921744004
0
LWPOLYLINE
5
183
100
AcDbEntity
8
0
100
AcDbPolyline
90
4
70
1
43
0.0
10
-307.59266555439723
20
-47.345133465859405
42
0.51298917604263028
10
-307.59266555439717
20
-57.904160672736261
42
-0.61091379785537225
10
-307.72460999884203
20
-58.784079606642415
42
-1.3923991921155887
10
-307.72460999884203
20
-46.465214531953443
42
-0.6109137978553556
0
LWPOLYLINE
5
184
100
AcDbEntity
8
0
100
AcDbPolyline
90
4
70
1
43
0.0
10
-350.10933617028081
20
-57.90416067273641
42
0.51298917604263161
10
-350.10933617028093
20
-47.345133465859568
42
-0.61091379785542055
10
-349.97739172583601
20
-46.465214531953407
42
-1.3923991921155991
10
-349.97739172583601
20
-58.784079606642337
42
-0.61091379785543987
0
CIRCLE
5
185
100
AcDbEntity
8
0
100
AcDbCircle
10
-328.77518788064998
20
-52.59999882429841
30
0
40
2.5
210
0
220
0
230
1
0
CIRCLE
5
186
100
AcDbEntity
8
0
100
AcDbCircle
10
-321.59999281168007
20
-52.59999882429841
30
0
40
2.5
210
0
220
0
230
1
0
CIRCLE
5
187
100
AcDbEntity
8
0
100
AcDbCircle
10
-335.99999248981499
20
-52.59999882429841
30
0
40
2.5
210
0
220
0
230
1
0
CIRCLE
5
188
100
AcDbEntity
8
0
100
AcDbCircle
10
-191.00560286083504
20
-61.15619442646981
30
0
40
2.5
210
0
220
0
230
1
0
CIRCLE
5
189
100
AcDbEntity
8
0
100
AcDbCircle
10
-191.88629568562999
20
-21.274362413940899
30
0
40
2.5
210
0
220
0
230
1
0
LWPOLYLINE
5
190
100
AcDbEntity
8
0
100
AcDbPolyline
90
76
70
1
43
0.0
10
-354.90100244114501
20
-36.578233205319307
10
-354.90100244114501
20
-26.575996921744004
10
-340.90100323275004
20
-26.575996921744004
10
-340.90100323275004
20
-40.575996130138101
10
-354.90100244114501
20
-40.575996130138101
10
-354.90100244114495
20
-40.42176794207019
42
-0.17743068958548289
10
-356.52108833706103
20
-40.999911673327134
10
-360.36522788537502
20
-40.999911673327098
10
-360.36522788537502
20
-78.709436030674794
10
-356.49846614752101
20
-78.709436030674752
42
-1.0199214069936595
10
-356.49854548905301
20
-83.708463442213429
10
-360.36522788537502
20
-83.7084634422135
10
-360.36522788537502
20
-101.45686385638599
42
0.41421356237309853
10
-358.86522788537502
20
-102.95686385638601
10
-328.86522788537502
20
-102.95686385638601
10
-328.86522788537502
20
-105.95686385638601
42
0.41421356237306034
10
-327.36522788537513
20
-107.45686385638604
10
-280.96522788537499
20
-107.45686385638599
42
0.41421356237309853
10
-279.46522788537499
20
-105.95686385638601
10
-279.46522788537499
20
-102.95686385638601
10
-202.698188883054
20
-102.95686385638601
10
-202.698188883054
20
-105.95686385638601
42
0.41421356237310542
10
-201.198188883054
20
-107.45686385638601
10
-154.79818888305499
20
-107.45686385638599
42
0.41421356237308815
10
-153.29818888305499
20
-105.95686385638601
10
-153.29818888305499
20
-102.95686385638601
10
-82.698188883053916
20
-102.95686385638601
10
-82.698188883053916
20
-105.95686385638601
42
0.41421356237308815
10
-81.198188883053803
20
-107.45686385638601
10
-34.7981888830546
20
-107.45686385638599
42
0.41421356237308898
10
-33.298188883054593
20
-105.95686385638601
10
-33.2981888830546
20
-102.95686385638601
10
-3.2981888830550909
20
-102.95686385638601
42
0.41421356237309537
10
-1.7981888830550856
20
-101.45686385638599
10
-1.7981888830550803
20
-83.630096112245198
10
-6.8183269840640115
20
-83.630096112245198
10
-6.8183269840319261
20
-83.6265461465116
42
-0.99999999999999989
10
-6.6420133109175001
20
-78.629655764616786
10
-1.7981888830550803
20
-78.6296557646168
10
-1.7981888830550901
20
-25.280130124405904
10
-7.1429272706892437
20
-25.280130123807972
42
-1.0003986612724496
10
-7.1429272706882996
20
-20.280130520976627
10
-1.7981888830550896
20
-20.280130520976599
10
-1.7981888830550901
20
-3.4400905795257497
42
0.41421356237309498
10
-3.2981888830550998
20
-1.9400905795257501
10
-8.0937384824917853
20
-1.9400905795257466
42
-0.81226994891618931
10
-16.902639283618413
20
-1.9400905795257528
10
-33.298188883055097
20
-1.9400905795257501
10
-33.298188883055097
20
1.3599094204742497
42
0.41421356237309354
10
-34.798188883055097
20
2.8599094204742408
10
-81.198188883055096
20
2.8599094204742399
42
0.41421356237308732
10
-82.698188883055082
20
1.3599094204742195
10
-82.698188883055096
20
-1.9400905795257497
10
-116.0937384824917
20
-1.9400905795258128
42
-0.81226994891617899
10
-124.9026392836183
20
-1.940090579525811
10
-153.29818888305499
20
-1.9400905795257501
10
-153.29818888305499
20
1.3599094204742497
42
0.4142135623730972
10
-154.79818888305499
20
2.8599094204742279
10
-201.19818888305502
20
2.8599094204742501
42
0.41421356237310053
10
-202.69818888305502
20
1.3599094204742292
10
-202.69818888305502
20
-1.9400905795257497
10
-237.26077748481262
20
-1.9400905795256151
42
-0.81226994891619464
10
-246.06967828593935
20
-1.9400905795258154
10
-279.46522788537499
20
-1.9400905795257501
10
-279.46522788537499
20
1.3599094204742395
42
0.41421356237309986
10
-280.96522788537499
20
2.8599094204742497
10
-327.36522788537508
20
2.8599094204742399
42
0.41421356237307416
10
-328.86522788537502
20
1.3599094204742395
10
-328.86522788537502
20
-1.9400905795257497
10
-345.26077748481271
20
-1.9400905795256236
42
-0.81226994891619431
10
-354.06967828593935
20
-1.940090579525831
10
-358.86522788537502
20
-1.9400905795257501
42
0.41421356237309481
10
-360.36522788537502
20
-3.4400905795257604
10
-360.36522788537502
20
-35.999999195337303
10
-356.52108833706103
20
-35.999999195337303
10
-356.52108833706103
20
-36.000089474062406
42
-0.17743068958549182
0
LWPOLYLINE
5
191
100
AcDbEntity
8
0
100
AcDbPolyline
90
8
70
1
43
0.0
10
-149.57644743113801
20
-45.632867399020107
42
0.41421356237310542
10
-150.07644743113801
20
-46.1328673990201
10
-150.07644743113804
20
-59.1328673990201
42
0.41421356237307422
10
-149.57644743113801
20
-59.6328673990201
10
-136.57644743113801
20
-59.6328673990201
42
0.41421356237310025
10
-136.07644743113804
20
-59.1328673990201
10
-136.07644743113801
20
-46.1328673990201
42
0.41421356237307944
10
-136.57644743113801
20
-45.632867399020107
0
LWPOLYLINE
5
192
100
AcDbEntity
8
0
100
AcDbPolyline
90
8
70
1
43
0.0
10
-108.00144743113802
20
-40.582867399020103
10
-121.00144743113802
20
-40.582867399020117
42
-0.41421356237309503
10
-121.50144743113802
20
-40.08286739902011
10
-121.50144743113802
20
-27.082867399020103
42
-0.41421356237311585
10
-121.00144743113802
20
-26.582867399020103
10
-108.00144743113802
20
-26.582867399020099
42
-0.41421356237309243
10
-107.501447431138
20
-27.082867399020103
10
-107.501447431138
20
-40.08286739902011
42
-0.41421356237311585
0
LWPOLYLINE
5
193
100
AcDbEntity
8
0
100
AcDbPolyline
90
8
70
1
43
0.0
10
-126.551447431138
20
-27.082867399020103
42
0.41421356237307161
10
-127.051447431138
20
-26.582867399020099
10
-140.051447431138
20
-26.582867399020103
42
0.41421356237310025
10
-140.551447431138
20
-27.082867399020103
10
-140.55144743113803
20
-40.08286739902011
42
0.41421356237307422
10
-140.051447431138
20
-40.582867399020103
10
-127.051447431138
20
-40.582867399020103
42
0.41421356237310025
10
-126.55144743113802
20
-40.08286739902011
0
LWPOLYLINE
5
194
100
AcDbEntity
8
0
100
AcDbPolyline
90
8
70
1
43
0.0
10
-40.038947431138297
20
-83.732867399020108
10
-27.0389474311383
20
-83.732867399020108
42
-0.41421356237310025
10
-26.538947431138304
20
-84.232867399020094
10
-26.538947431138297
20
-97.232867399020094
42
-0.41421356237307161
10
-27.0389474311383
20
-97.732867399020108
10
-40.038947431138297
20
-97.73286739902008
42
-0.41421356237310025
10
-40.538947431138297
20
-97.232867399020094
10
-40.53894743113829
20
-84.232867399020094
42
-0.41421356237307422
0
LWPOLYLINE
5
195
100
AcDbEntity
8
0
100
AcDbPolyline
90
8
70
1
43
0.0
10
-40.826447431138305
20
-46.1328673990201
10
-40.826447431138305
20
-59.1328673990201
42
-0.41421356237309503
10
-41.326447431138298
20
-59.6328673990201
10
-54.326447431138199
20
-59.6328673990201
42
-0.41421356237309503
10
-54.826447431138199
20
-59.1328673990201
10
-54.826447431138199
20
-46.1328673990201
42
-0.41421356237309503
10
-54.326447431138199
20
-45.632867399020107
10
-41.326447431138298
20
-45.632867399020107
42
-0.41421356237309503
0
LWPOLYLINE
5
196
100
AcDbEntity
8
0
100
AcDbPolyline
90
8
70
1
43
0.0
10
-44.8014474311383
20
-26.582867399020103
42
0.41421356237309503
10
-45.3014474311383
20
-27.082867399020103
10
-45.3014474311383
20
-40.08286739902011
42
0.41421356237309503
10
-44.8014474311383
20
-40.582867399020103
10
-31.801447431138303
20
-40.582867399020103
42
0.41421356237309503
10
-31.3014474311383
20
-40.08286739902011
10
-31.301447431138307
20
-27.082867399020103
42
0.41421356237309503
10
-31.801447431138303
20
-26.582867399020103
0
LWPOLYLINE
5
197
100
AcDbEntity
8
0
100
AcDbPolyline
90
8
70
1
43
0.0
10
-200.37019743113802
20
-8.0328673990201604
10
-200.370197431138
20
-21.032867399020205
42
-0.41421356237304563
10
-200.870197431138
20
-21.532867399020201
10
-213.870197431138
20
-21.532867399020201
42
-0.41421356237313145
10
-214.37019743113802
20
-21.032867399020205
10
-214.37019743113802
20
-8.0328673990201604
42
-0.41421356237313273
10
-213.870197431138
20
-7.5328673990201533
10
-200.870197431138
20
-7.5328673990201782
42
-0.41421356237310153
0
LWPOLYLINE
5
198
100
AcDbEntity
8
0
100
AcDbPolyline
90
8
70
1
43
0.0
10
-184.20144743113804
20
-40.582867399020103
42
0.4142135623730222
10
-183.70144743113804
20
-40.08286739902011
10
-183.70144743113801
20
-27.082867399020103
42
0.41421356237310025
10
-184.20144743113804
20
-26.582867399020103
10
-197.20144743113804
20
-26.582867399020103
42
0.41421356237307683
10
-197.70144743113804
20
-27.082867399020103
10
-197.70144743113804
20
-40.08286739902011
42
0.41421356237313145
10
-197.20144743113804
20
-40.582867399020103
0
LWPOLYLINE
5
199
100
AcDbEntity
8
0
100
AcDbPolyline
90
8
70
1
43
0.0
10
-203.25144743113799
20
-40.582867399020103
42
0.41421356237307422
10
-202.75144743113796
20
-40.08286739902011
10
-202.75144743113802
20
-27.082867399020103
42
0.41421356237311846
10
-203.25144743113799
20
-26.582867399020103
10
-216.25144743113799
20
-26.582867399020103
42
0.41421356237304563
10
-216.75144743113802
20
-27.082867399020103
10
-216.75144743113802
20
-40.08286739902011
42
0.41421356237312101
10
-216.25144743113799
20
-40.582867399020103
0
LWPOLYLINE
5
200
100
AcDbEntity
8
0
100
AcDbPolyline
90
8
70
1
43
0.0
10
-271.020197431138
20
-26.582867399020103
10
-258.02019743113806
20
-26.582867399020085
42
-0.41421356237310025
10
-257.520197431138
20
-27.082867399020103
10
-257.52019743113806
20
-40.08286739902011
42
-0.4142135623730222
10
-258.02019743113806
20
-40.582867399020103
10
-271.020197431138
20
-40.582867399020088
42
-0.41421356237312101
10
-271.520197431138
20
-40.08286739902011
10
-271.520197431138
20
-27.082867399020103
42
-0.41421356237304563
0
LWPOLYLINE
5
201
100
AcDbEntity
8
0
100
AcDbPolyline
90
8
70
1
43
0.0
10
-248.49519743113802
20
-21.532867399020201
42
0.41421356237304563
10
-247.99519743113802
20
-21.032867399020205
10
-247.99519743113802
20
-8.0328673990201604
42
0.41421356237310153
10
-248.49519743113802
20
-7.5328673990201711
10
-261.49519743113802
20
-7.5328673990201711
42
0.4142135623730957
10
-261.99519743113802
20
-8.0328673990201604
10
-261.99519743113802
20
-21.032867399020205
42
0.41421356237313145
10
-261.49519743113802
20
-21.532867399020201
0
LWPOLYLINE
5
202
100
AcDbEntity
8
0
100
AcDbPolyline
90
8
70
1
43
0.0
10
-256.35094743113802
20
-83.232867399020094
10
-256.35094743113802
20
-96.232867399020108
42
-0.41421356237309503
10
-256.85094743113802
20
-96.732867399020094
10
-262.60094743113802
20
-96.732867399020122
42
-0.41421356237310542
10
-263.10094743113802
20
-96.232867399020108
10
-263.10094743113802
20
-83.232867399020094
42
-0.41421356237307422
10
-262.60094743113802
20
-82.732867399020108
10
-256.85094743113802
20
-82.73286739902008
42
-0.41421356237313667
0
LWPOLYLINE
5
203
100
AcDbEntity
8
0
100
AcDbPolyline
90
8
70
1
43
0.0
10
-82.55769743113818
20
-7.0328673990201596
42
0.41421356237307294
10
-83.057697431138195
20
-6.5328673990201551
10
-88.807697431138195
20
-6.5328673990201525
42
0.4142135623730937
10
-89.307697431138195
20
-7.0328673990201596
10
-89.307697431138209
20
-20.032867399020201
42
0.41421356237309503
10
-88.807697431138195
20
-20.532867399020201
10
-83.057697431138195
20
-20.532867399020191
42
0.41421356237309764
10
-82.557697431138195
20
-20.032867399020201
0
LWPOLYLINE
5
204
100
AcDbEntity
8
0
100
AcDbPolyline
90
8
70
1
43
0.0
10
-140.838947431138
20
-84.232867399020094
10
-140.838947431138
20
-97.232867399020094
42
-0.41421356237307422
10
-141.338947431138
20
-97.732867399020108
10
-154.338947431138
20
-97.732867399020108
42
-0.41421356237307422
10
-154.83894743113802
20
-97.232867399020094
10
-154.83894743113802
20
-84.232867399020094
42
-0.41421356237307422
10
-154.338947431138
20
-83.73286739902008
10
-141.338947431138
20
-83.732867399020108
42
-0.41421356237307422
0
LWPOLYLINE
5
205
100
AcDbEntity
8
0
100
AcDbPolyline
90
8
70
1
43
0.0
10
-164.651447431138
20
-27.082867399020103
42
0.41421356237310025
10
-165.15144743113802
20
-26.582867399020085
10
-178.15144743113802
20
-26.582867399020103
42
0.41421356237307683
10
-178.651447431138
20
-27.082867399020103
10
-178.65144743113802
20
-40.08286739902011
42
0.41421356237313145
10
-178.15144743113802
20
-40.582867399020103
10
-165.15144743113802
20
-40.582867399020103
42
0.4142135623730222
10
-164.651447431138
20
-40.08286739902011
0
LWPOLYLINE
5
206
100
AcDbEntity
8
0
100
AcDbPolyline
90
8
70
1
43
0.0
10
-47.182697431138301
20
-7.5328673990201498
10
-34.182697431138308
20
-7.5328673990201622
42
-0.41421356237309503
10
-33.682697431138308
20
-8.0328673990201604
10
-33.682697431138308
20
-21.032867399020205
42
-0.41421356237309503
10
-34.182697431138308
20
-21.532867399020201
10
-47.182697431138301
20
-21.532867399020201
42
-0.41421356237309503
10
-47.682697431138301
20
-21.032867399020205
10
-47.682697431138308
20
-8.0328673990201604
42
-0.41421356237309764
0
LWPOLYLINE
5
207
100
AcDbEntity
8
0
100
AcDbPolyline
90
8
70
1
43
0.0
10
-271.30769743113802
20
-53.594867399020103
42
0.4142135623730222
10
-270.80769743113808
20
-53.094867399020103
10
-270.80769743113802
20
-47.344867399020103
42
0.41421356237312623
10
-271.30769743113802
20
-46.844867399020103
10
-284.30769743113802
20
-46.844867399020103
42
0.41421356237307422
10
-284.80769743113802
20
-47.344867399020103
10
-284.80769743113802
20
-53.094867399020103
42
0.41421356237313145
10
-284.30769743113802
20
-53.594867399020103
0
LWPOLYLINE
5
208
100
AcDbEntity
8
0
100
AcDbPolyline
90
8
70
1
43
0.0
10
-285.30769743113802
20
-55.157867399020105
42
0.41421356237307422
10
-285.80769743113808
20
-55.657867399020098
10
-285.80769743113808
20
-68.657867399020105
42
0.41421356237313145
10
-285.30769743113802
20
-69.157867399020105
10
-272.30769743113802
20
-69.157867399020105
42
0.4142135623730222
10
-271.80769743113802
20
-68.657867399020105
10
-271.80769743113802
20
-55.657867399020098
42
0.41421356237312101
10
-272.30769743113802
20
-55.157867399020105
0
LWPOLYLINE
5
209
100
AcDbEntity
8
0
100
AcDbPolyline
90
8
70
1
43
0.0
10
-273.08319743113799
20
-26.082867399020099
10
-273.08319743113793
20
-39.082867399020103
42
-0.41421356237307683
10
-273.58319743113799
20
-39.582867399020103
10
-279.33319743113799
20
-39.582867399020117
42
-0.41421356237310025
10
-279.83319743113799
20
-39.082867399020103
10
-279.83319743113799
20
-26.082867399020099
42
-0.41421356237305079
10
-279.33319743113799
20
-25.582867399020103
10
-273.58319743113799
20
-25.582867399020095
42
-0.41421356237313406
0
LWPOLYLINE
5
210
100
AcDbEntity
8
0
100
AcDbPolyline
90
8
70
1
43
0.0
10
-321.81394743113799
20
-84.232867399020094
10
-321.81394743113805
20
-97.232867399020094
42
-0.41421356237318868
10
-322.31394743113805
20
-97.732867399020108
10
-335.31394743113799
20
-97.73286739902008
42
-0.4142135623730222
10
-335.81394743113799
20
-97.232867399020094
10
-335.81394743113799
20
-84.232867399020094
42
-0.41421356237318868
10
-335.31394743113799
20
-83.73286739902008
10
-322.31394743113805
20
-83.732867399020023
42
-0.4142135623730222
0
LWPOLYLINE
5
211
100
AcDbEntity
8
0
100
AcDbPolyline
90
8
70
1
43
0.0
10
-302.76394743113798
20
-8.0328673990201604
42
0.41421356237313273
10
-303.26394743113798
20
-7.5328673990201604
10
-316.26394743113798
20
-7.5328673990201711
42
0.41421356237307488
10
-316.76394743113798
20
-8.0328673990201604
10
-316.76394743113798
20
-21.032867399020205
42
0.41421356237310025
10
-316.26394743113798
20
-21.532867399020201
10
-303.26394743113798
20
-21.532867399020201
42
0.41421356237307683
10
-302.76394743113798
20
-21.032867399020205
0
LWPOLYLINE
5
212
100
AcDbEntity
8
0
100
AcDbPolyline
90
8
70
1
43
0.0
10
-322.31394743113805
20
-21.532867399020201
10
-335.31394743113799
20
-21.532867399020091
42
-0.4142135623730222
10
-335.81394743113799
20
-21.032867399020102
10
-335.81394743113799
20
-8.0328673990201604
42
-0.41421356237319257
10
-335.31394743113799
20
-7.5328673990201533
10
-322.31394743113805
20
-7.5328673990201747
42
-0.41421356237302026
10
-321.81394743113805
20
-8.0328673990201604
10
-321.81394743113805
20
-21.032867399020205
42
-0.4142135623731939
0
LWPOLYLINE
5
213
100
AcDbEntity
8
0
100
AcDbPolyline
90
8
70
1
43
0.0
10
-341.36394743113806
20
-97.732867399020108
42
0.41421356237318868
10
-340.86394743113806
20
-97.232867399020094
10
-340.863947431138
20
-84.232867399020094
42
0.41421356237310542
10
-341.36394743113806
20
-83.732867399020108
10
-354.363947431138
20
-83.73286739902008
42
0.41421356237318868
10
-354.863947431138
20
-84.232867399020094
10
-354.86394743113806
20
-97.232867399020094
42
0.41421356237310542
10
-354.363947431138
20
-97.732867399020108
0
LWPOLYLINE
5
214
100
AcDbEntity
8
0
100
AcDbPolyline
90
8
70
1
43
0.0
10
-285.80769743113808
20
-21.032867399020205
10
-285.80769743113808
20
-8.0328673990201604
42
-0.41421356237313273
10
-285.30769743113802
20
-7.5328673990201533
10
-272.30769743113802
20
-7.5328673990201844
42
-0.41421356237309764
10
-271.80769743113808
20
-8.0328673990201604
10
-271.80769743113802
20
-21.032867399020205
42
-0.41421356237304563
10
-272.30769743113802
20
-21.532867399020201
10
-285.30769743113802
20
-21.532867399020201
42
-0.41421356237313145
0
LWPOLYLINE
5
215
100
AcDbEntity
8
0
100
AcDbPolyline
90
8
70
1
43
0.0
10
-168.62644743113802
20
-45.632867399020107
10
-155.62644743113799
20
-45.632867399020085
42
-0.41421356237310025
10
-155.12644743113799
20
-46.1328673990201
10
-155.12644743113799
20
-59.1328673990201
42
-0.41421356237311585
10
-155.62644743113799
20
-59.6328673990201
10
-168.62644743113802
20
-59.6328673990201
42
-0.41421356237313145
10
-169.12644743113802
20
-59.1328673990201
10
-169.12644743113805
20
-46.1328673990201
42
-0.41421356237307422
0
LWPOLYLINE
5
216
100
AcDbEntity
8
0
100
AcDbPolyline
90
8
70
1
43
0.0
10
-7.98894743113829
20
-97.732867399020108
42
0.41421356237307355
10
-7.4889474311382838
20
-97.232867399020094
10
-7.48894743113829
20
-84.232867399020094
42
0.41421356237307294
10
-7.9889474311382891
20
-83.732867399020108
10
-20.9889474311383
20
-83.73286739902008
42
0.41421356237307422
10
-21.4889474311383
20
-84.232867399020094
10
-21.4889474311383
20
-97.232867399020094
42
0.4142135623730846
10
-20.9889474311383
20
-97.732867399020108
0
LWPOLYLINE
5
217
100
AcDbEntity
8
0
100
AcDbPolyline
90
8
70
1
43
0.0
10
-131.81394743113799
20
-78.682867399020097
42
0.41421356237311063
10
-131.31394743113799
20
-78.182867399020097
10
-131.31394743113799
20
-65.182867399020097
42
0.41421356237310025
10
-131.81394743113799
20
-64.682867399020097
10
-144.81394743113799
20
-64.682867399020097
42
0.41421356237312101
10
-145.31394743113799
20
-65.182867399020097
10
-145.31394743113799
20
-78.182867399020097
42
0.41421356237310025
10
-144.81394743113799
20
-78.682867399020097
0
LWPOLYLINE
5
218
100
AcDbEntity
8
0
100
AcDbPolyline
90
8
70
1
43
0.0
10
-64.351447431138212
20
-40.08286739902011
10
-64.351447431138183
20
-27.082867399020103
42
-0.41421356237309764
10
-63.851447431138197
20
-26.582867399020103
10
-50.851447431138197
20
-26.582867399020103
42
-0.41421356237309503
10
-50.351447431138197
20
-27.082867399020103
10
-50.351447431138197
20
-40.08286739902011
42
-0.41421356237309503
10
-50.851447431138197
20
-40.582867399020103
10
-63.851447431138197
20
-40.582867399020117
42
-0.41421356237309503
0
LWPOLYLINE
5
219
100
AcDbEntity
8
0
100
AcDbPolyline
90
8
70
1
43
0.0
10
-236.08894743113802
20
-84.232867399020094
10
-236.08894743113802
20
-97.232867399020094
42
-0.41421356237309503
10
-236.58894743113802
20
-97.732867399020108
10
-249.58894743113802
20
-97.73286739902008
42
-0.4142135623730846
10
-250.08894743113802
20
-97.232867399020094
10
-250.08894743113808
20
-84.232867399020094
42
-0.4142135623730846
10
-249.58894743113802
20
-83.73286739902008
10
-236.58894743113802
20
-83.73286739902008
42
-0.41421356237309503
0
LWPOLYLINE
5
220
100
AcDbEntity
8
0
100
AcDbPolyline
90
8
70
1
43
0.0
10
-217.53894743113804
20
-97.732867399020108
10
-230.53894743113801
20
-97.73286739902008
42
-0.4142135623730846
10
-231.03894743113801
20
-97.232867399020094
10
-231.03894743113807
20
-84.232867399020094
42
-0.4142135623730846
10
-230.53894743113801
20
-83.73286739902008
10
-217.53894743113804
20
-83.732867399020108
42
-0.4142135623730846
10
-217.03894743113804
20
-84.232867399020094
10
-217.03894743113801
20
-97.232867399020094
42
-0.4142135623730846
0
LWPOLYLINE
5
221
100
AcDbEntity
8
0
100
AcDbPolyline
90
8
70
1
43
0.0
10
-207.51394743113804
20
-65.182867399020097
10
-207.51394743113806
20
-78.182867399020097
42
-0.41421356237307422
10
-208.01394743113804
20
-78.682867399020097
10
-221.01394743113801
20
-78.682867399020083
42
-0.41421356237310025
10
-221.51394743113798
20
-78.182867399020097
10
-221.51394743113804
20
-65.182867399020097
42
-0.41421356237312623
10
-221.01394743113801
20
-64.682867399020097
10
-208.01394743113804
20
-64.682867399020111
42
-0.41421356237312623
0
LWPOLYLINE
5
222
100
AcDbEntity
8
0
100
AcDbPolyline
90
8
70
1
43
0.0
10
-188.807697431138
20
-6.5328673990201525
42
0.41421356237313273
10
-189.307697431138
20
-7.0328673990201596
10
-189.30769743113797
20
-20.032867399020201
42
0.41421356237311846
10
-188.807697431138
20
-20.532867399020098
10
-183.057697431138
20
-20.532867399020201
42
0.41421356237305079
10
-182.557697431138
20
-20.032867399020201
10
-182.55769743113802
20
-7.0328673990201596
42
0.41421356237309764
10
-183.057697431138
20
-6.5328673990201604
0
LWPOLYLINE
5
223
100
AcDbEntity
8
0
100
AcDbPolyline
90
8
70
1
43
0.0
10
-259.11394743113806
20
-64.682867399020097
10
-246.11394743113803
20
-64.682867399020097
42
-0.41421356237313667
10
-245.613947431138
20
-65.182867399020097
10
-245.613947431138
20
-78.182867399020097
42
-0.41421356237309503
10
-246.11394743113803
20
-78.682867399020097
10
-259.11394743113806
20
-78.682867399020097
42
-0.41421356237312623
10
-259.61394743113806
20
-78.182867399020097
10
-259.61394743113806
20
-65.182867399020097
42
-0.41421356237312623
0
LWPOLYLINE
5
224
100
AcDbEntity
8
0
100
AcDbPolyline
90
8
70
1
43
0.0
10
-263.87644743113799
20
-45.632867399020107
42
0.41421356237307422
10
-264.37644743113805
20
-46.1328673990201
10
-264.37644743113799
20
-59.1328673990201
42
0.41421356237313145
10
-263.87644743113799
20
-59.6328673990201
10
-250.87644743113799
20
-59.6328673990201
42
0.4142135623730222
10
-250.37644743113802
20
-59.1328673990201
10
-250.37644743113799
20
-46.1328673990201
42
0.41421356237312623
10
-250.87644743113799
20
-45.632867399020107
0
LWPOLYLINE
5
225
100
AcDbEntity
8
0
100
AcDbPolyline
90
8
70
1
43
0.0
10
-14.632697431138302
20
-46.1328673990201
10
-14.632697431138304
20
-59.1328673990201
42
-0.41421356237309503
10
-15.132697431138302
20
-59.6328673990201
10
-28.1326974311383
20
-59.6328673990201
42
-0.41421356237309503
10
-28.632697431138297
20
-59.1328673990201
10
-28.632697431138304
20
-46.1328673990201
42
-0.41421356237309764
10
-28.1326974311383
20
-45.632867399020107
10
-15.132697431138302
20
-45.632867399020107
42
-0.41421356237309764
0
LWPOLYLINE
5
226
100
AcDbEntity
8
0
100
AcDbPolyline
90
8
70
1
43
0.0
10
-57.495197431138301
20
-8.0328673990201604
10
-57.495197431138308
20
-21.032867399020205
42
-0.41421356237309764
10
-57.995197431138301
20
-21.532867399020201
10
-70.995197431138195
20
-21.532867399020205
42
-0.41421356237309764
10
-71.495197431138195
20
-21.032867399020205
10
-71.495197431138209
20
-8.0328673990201604
42
-0.41421356237310281
10
-70.995197431138195
20
-7.5328673990201533
10
-57.995197431138301
20
-7.5328673990201604
42
-0.41421356237309631
0
LWPOLYLINE
5
227
100
AcDbEntity
8
0
100
AcDbPolyline
90
8
70
1
43
0.0
10
-79.4264474311382
20
-59.6328673990201
10
-92.4264474311382
20
-59.632867399020107
42
-0.41421356237307422
10
-92.9264474311382
20
-59.1328673990201
10
-92.926447431138186
20
-46.1328673990201
42
-0.41421356237310542
10
-92.4264474311382
20
-45.632867399020107
10
-79.4264474311382
20
-45.632867399020107
42
-0.41421356237310542
10
-78.926447431138214
20
-46.1328673990201
10
-78.926447431138214
20
-59.1328673990201
42
-0.41421356237309503
0
LWPOLYLINE
5
228
100
AcDbEntity
8
0
100
AcDbPolyline
90
8
70
1
43
0.0
10
-93.213947431138209
20
-65.182867399020097
42
0.41421356237309503
10
-93.713947431138195
20
-64.682867399020111
10
-106.71394743113801
20
-64.682867399020097
42
0.41421356237312101
10
-107.213947431138
20
-65.182867399020097
10
-107.21394743113802
20
-78.182867399020097
42
0.41421356237310025
10
-106.71394743113801
20
-78.682867399020097
10
-93.713947431138195
20
-78.682867399020097
42
0.41421356237309503
10
-93.213947431138195
20
-78.182867399020097
0
LWPOLYLINE
5
229
100
AcDbEntity
8
0
100
AcDbPolyline
90
8
70
1
43
0.0
10
-111.976447431138
20
-59.1328673990201
10
-111.976447431138
20
-46.1328673990201
42
-0.41421356237312101
10
-111.47644743113801
20
-45.632867399020107
10
-98.476447431138212
20
-45.632867399020085
42
-0.41421356237307944
10
-97.976447431138197
20
-46.1328673990201
10
-97.976447431138212
20
-59.1328673990201
42
-0.41421356237310025
10
-98.476447431138197
20
-59.6328673990201
10
-111.47644743113801
20
-59.632867399020093
42
-0.41421356237309503
0
LWPOLYLINE
5
230
100
AcDbEntity
8
0
100
AcDbPolyline
90
8
70
1
43
0.0
10
-125.76394743113802
20
-64.682867399020097
42
0.41421356237312101
10
-126.26394743113801
20
-65.182867399020097
10
-126.26394743113804
20
-78.182867399020097
42
0.41421356237310025
10
-125.76394743113802
20
-78.682867399020097
10
-112.76394743113801
20
-78.682867399020097
42
0.41421356237311063
10
-112.26394743113801
20
-78.182867399020097
10
-112.26394743113801
20
-65.182867399020097
42
0.41421356237310025
10
-112.76394743113801
20
-64.682867399020097
0
LWPOLYLINE
5
231
100
AcDbEntity
8
0
100
AcDbPolyline
90
8
70
1
43
0.0
10
-202.46394743113797
20
-78.182867399020097
42
0.41421356237310025
10
-201.963947431138
20
-78.682867399020083
10
-188.963947431138
20
-78.682867399020097
42
0.41421356237309503
10
-188.46394743113802
20
-78.182867399020097
10
-188.46394743113797
20
-65.182867399020097
42
0.41421356237313667
10
-188.963947431138
20
-64.682867399020097
10
-201.963947431138
20
-64.682867399020097
42
0.4142135623730222
10
-202.463947431138
20
-65.182867399020097
0
LWPOLYLINE
5
232
100
AcDbEntity
8
0
100
AcDbPolyline
90
8
70
1
43
0.0
10
-131.026447431138
20
-59.1328673990201
10
-131.026447431138
20
-46.1328673990201
42
-0.41421356237310542
10
-130.526447431138
20
-45.632867399020107
10
-117.52644743113802
20
-45.632867399020085
42
-0.41421356237307944
10
-117.026447431138
20
-46.1328673990201
10
-117.02644743113801
20
-59.1328673990201
42
-0.41421356237310025
10
-117.526447431138
20
-59.6328673990201
10
-130.526447431138
20
-59.632867399020093
42
-0.41421356237307422
0
LWPOLYLINE
5
233
100
AcDbEntity
8
0
100
AcDbPolyline
90
8
70
1
43
0.0
10
-128.932697431138
20
-8.0328673990201604
10
-128.93269743113802
20
-21.032867399020205
42
-0.41421356237310025
10
-129.432697431138
20
-21.532867399020201
10
-142.432697431138
20
-21.532867399020205
42
-0.41421356237309243
10
-142.932697431138
20
-21.032867399020205
10
-142.932697431138
20
-8.0328673990201604
42
-0.4142135623730937
10
-142.432697431138
20
-7.5328673990201533
10
-129.432697431138
20
-7.5328673990201551
42
-0.41421356237307294
0
LWPOLYLINE
5
234
100
AcDbEntity
8
0
100
AcDbPolyline
90
8
70
1
43
0.0
10
-59.876447431138303
20
-46.1328673990201
10
-59.876447431138203
20
-59.1328673990201
42
-0.41421356237309503
10
-60.376447431138203
20
-59.6328673990201
10
-73.376447431138203
20
-59.6328673990201
42
-0.41421356237309503
10
-73.876447431138203
20
-59.1328673990201
10
-73.876447431138203
20
-46.1328673990201
42
-0.41421356237310542
10
-73.376447431138203
20
-45.632867399020107
10
-60.376447431138203
20
-45.632867399020199
42
-0.4142135623730846
0
LWPOLYLINE
5
235
100
AcDbEntity
8
0
100
AcDbPolyline
90
8
70
1
43
0.0
10
-74.163947431138197
20
-65.182867399020097
10
-74.163947431138212
20
-78.182867399020097
42
-0.41421356237307422
10
-74.663947431138212
20
-78.682867399020097
10
-87.663947431138183
20
-78.682867399020125
42
-0.41421356237307944
10
-88.163947431138197
20
-78.182867399020097
10
-88.163947431138183
20
-65.182867399020097
42
-0.41421356237310542
10
-87.663947431138197
20
-64.682867399020097
10
-74.663947431138212
20
-64.682867399020097
42
-0.41421356237310542
0
LWPOLYLINE
5
236
100
AcDbEntity
8
0
100
AcDbPolyline
90
8
70
1
43
0.0
10
-65.138947431138206
20
-97.732867399020108
42
0.41421356237307422
10
-64.638947431138206
20
-97.232867399020094
10
-64.638947431138206
20
-84.232867399020094
42
0.41421356237310025
10
-65.138947431138206
20
-83.732867399020108
10
-78.138947431138206
20
-83.73286739902008
42
0.41421356237307944
10
-78.638947431138206
20
-84.232867399020094
10
-78.638947431138206
20
-97.232867399020094
42
0.41421356237310542
10
-78.138947431138206
20
-97.732867399020108
0
LWPOLYLINE
5
237
100
AcDbEntity
8
0
100
AcDbPolyline
90
8
70
1
43
0.0
10
-192.93894743113799
20
-97.232867399020094
10
-192.93894743113805
20
-84.232867399020094
42
-0.4142135623730846
10
-192.43894743113799
20
-83.73286739902008
10
-179.43894743113799
20
-83.73286739902008
42
-0.41421356237309503
10
-178.93894743113799
20
-84.232867399020094
10
-178.93894743113799
20
-97.232867399020094
42
-0.41421356237309503
10
-179.43894743113799
20
-97.732867399020108
10
-192.43894743113799
20
-97.73286739902008
42
-0.4142135623730846
0
LWPOLYLINE
5
238
100
AcDbEntity
8
0
100
AcDbPolyline
90
8
70
1
43
0.0
10
-221.801447431138
20
-27.082867399020103
10
-221.80144743113797
20
-40.08286739902011
42
-0.41421356237307422
10
-222.301447431138
20
-40.582867399020103
10
-235.301447431138
20
-40.582867399020088
42
-0.41421356237312101
10
-235.80144743113803
20
-40.08286739902011
10
-235.80144743113803
20
-27.082867399020103
42
-0.41421356237304563
10
-235.301447431138
20
-26.582867399020103
10
-222.301447431138
20
-26.582867399020103
42
-0.41421356237313145
0
LWPOLYLINE
5
239
100
AcDbEntity
8
0
100
AcDbPolyline
90
8
70
1
43
0.0
10
-238.18269743113802
20
-21.032867399020205
10
-238.18269743113802
20
-8.0328673990201604
42
-0.41421356237313273
10
-237.68269743113802
20
-7.5328673990201533
10
-224.68269743113802
20
-7.5328673990201427
42
-0.41421356237310153
10
-224.182697431138
20
-8.0328673990201604
10
-224.182697431138
20
-21.032867399020205
42
-0.41421356237304563
10
-224.68269743113802
20
-21.532867399020201
10
-237.68269743113802
20
-21.532867399020201
42
-0.41421356237313145
0
LWPOLYLINE
5
240
100
AcDbEntity
8
0
100
AcDbPolyline
90
8
70
1
43
0.0
10
-212.776447431138
20
-59.6328673990201
10
-225.77644743113802
20
-59.632867399020085
42
-0.41421356237312101
10
-226.27644743113802
20
-59.1328673990201
10
-226.27644743113797
20
-46.1328673990201
42
-0.4142135623730222
10
-225.77644743113802
20
-45.632867399020107
10
-212.776447431138
20
-45.6328673990201
42
-0.41421356237313667
10
-212.276447431138
20
-46.1328673990201
10
-212.27644743113797
20
-59.1328673990201
42
-0.41421356237307422
0
LWPOLYLINE
5
241
100
AcDbEntity
8
0
100
AcDbPolyline
90
8
70
1
43
0.0
10
-226.56394743113799
20
-65.182867399020097
10
-226.56394743113799
20
-78.182867399020097
42
-0.41421356237309503
10
-227.06394743113802
20
-78.682867399020097
10
-240.06394743113802
20
-78.682867399020097
42
-0.41421356237312623
10
-240.56394743113802
20
-78.182867399020097
10
-240.56394743113805
20
-65.182867399020097
42
-0.41421356237312623
10
-240.06394743113802
20
-64.682867399020097
10
-227.06394743113802
20
-64.682867399020097
42
-0.41421356237313667
0
LWPOLYLINE
5
242
100
AcDbEntity
8
0
100
AcDbPolyline
90
8
70
1
43
0.0
10
-249.70719743113804
20
-39.582867399020103
42
0.41421356237304563
10
-249.20719743113804
20
-39.082867399020103
10
-249.20719743113804
20
-26.082867399020099
42
0.41421356237310281
10
-249.70719743113804
20
-25.582867399020103
10
-255.45719743113804
20
-25.582867399020103
42
0.41421356237308204
10
-255.95719743113804
20
-26.082867399020099
10
-255.95719743113804
20
-39.082867399020103
42
0.41421356237313145
10
-255.45719743113804
20
-39.582867399020103
0
LWPOLYLINE
5
243
100
AcDbEntity
8
0
100
AcDbPolyline
90
8
70
1
43
0.0
10
-55.6139474311382
20
-78.682867399020097
10
-68.6139474311382
20
-78.682867399020111
42
-0.41421356237311585
10
-69.1139474311382
20
-78.182867399020097
10
-69.1139474311382
20
-65.182867399020097
42
-0.41421356237310542
10
-68.6139474311382
20
-64.682867399020097
10
-55.6139474311382
20
-64.682867399020097
42
-0.41421356237309503
10
-55.1139474311382
20
-65.182867399020097
10
-55.1139474311382
20
-78.182867399020097
42
-0.4142135623730846
0
LWPOLYLINE
5
244
100
AcDbEntity
8
0
100
AcDbPolyline
90
8
70
1
43
0.0
10
-135.28894743113801
20
-83.732867399020108
10
-122.288947431138
20
-83.73286739902008
42
-0.4142135623730534
10
-121.788947431138
20
-84.232867399020094
10
-121.788947431138
20
-97.232867399020094
42
-0.4142135623730534
10
-122.288947431138
20
-97.732867399020108
10
-135.28894743113801
20
-97.732867399020108
42
-0.41421356237307422
10
-135.78894743113804
20
-97.232867399020094
10
-135.78894743113801
20
-84.232867399020094
42
-0.41421356237307422
0
LWPOLYLINE
5
245
100
AcDbEntity
8
0
100
AcDbPolyline
90
8
70
1
43
0.0
10
-173.38894743113801
20
-83.73286739902008
42
0.41421356237309503
10
-173.88894743113804
20
-84.232867399020094
10
-173.88894743113804
20
-97.232867399020094
42
0.41421356237309503
10
-173.38894743113801
20
-97.732867399020108
10
-160.38894743113801
20
-97.732867399020108
42
0.41421356237309503
10
-159.88894743113801
20
-97.232867399020094
10
-159.88894743113798
20
-84.232867399020094
42
0.41421356237309503
10
-160.38894743113801
20
-83.732867399020108
0
LWPOLYLINE
5
246
100
AcDbEntity
8
0
100
AcDbPolyline
90
8
70
1
43
0.0
10
-23.370197431138301
20
-7.5328673990201711
42
0.41421356237309048
10
-23.870197431138291
20
-8.0328673990201604
10
-23.870197431138301
20
-21.032867399020205
42
0.41421356237309503
10
-23.370197431138301
20
-21.532867399020201
10
-10.370197431138299
20
-21.532867399020201
42
0.41421356237309631
10
-9.8701974311382905
20
-21.032867399020205
10
-9.8701974311382994
20
-8.0328673990201604
42
0.41421356237309243
10
-10.370197431138299
20
-7.5328673990201711
0
LWPOLYLINE
5
247
100
AcDbEntity
8
0
100
AcDbPolyline
90
8
70
1
43
0.0
10
-264.66394743113801
20
-84.232867399020094
10
-264.66394743113801
20
-97.232867399020094
42
-0.41421356237309503
10
-265.16394743113801
20
-97.732867399020108
10
-278.16394743113801
20
-97.73286739902008
42
-0.4142135623730846
10
-278.66394743113807
20
-97.232867399020094
10
-278.66394743113807
20
-84.232867399020094
42
-0.4142135623730846
10
-278.16394743113801
20
-83.73286739902008
10
-265.16394743113801
20
-83.732867399020122
42
-0.41421356237311585
0
LWPOLYLINE
5
248
100
AcDbEntity
8
0
100
AcDbPolyline
90
8
70
1
43
0.0
10
-335.31394743113799
20
-26.582867399020103
42
0.4142135623731939
10
-335.81394743113799
20
-27.082867399020103
10
-335.81394743113799
20
-40.08286739902011
42
0.4142135623730222
10
-335.31394743113799
20
-40.582867399020103
10
-322.31394743113805
20
-40.582867399020103
42
0.41421356237319906
10
-321.81394743113799
20
-40.08286739902011
10
-321.81394743113805
20
-27.082867399020103
42
0.4142135623730222
10
-322.31394743113805
20
-26.582867399020103
0
LWPOLYLINE
5
249
100
AcDbEntity
8
0
100
AcDbPolyline
90
8
70
1
43
0.0
10
-286.976947431138
20
-96.232867399020108
10
-286.976947431138
20
-83.232867399020094
42
-0.41421356237307422
10
-286.476947431138
20
-82.732867399020108
10
-280.726947431138
20
-82.732867399020066
42
-0.41421356237310542
10
-280.226947431138
20
-83.232867399020094
10
-280.226947431138
20
-96.232867399020108
42
-0.41421356237307422
10
-280.726947431138
20
-96.732867399020094
10
-286.476947431138
20
-96.732867399020094
42
-0.41421356237310542
0
LWPOLYLINE
5
250
100
AcDbEntity
8
0
100
AcDbPolyline
90
8
70
1
43
0.0
10
-322.31394743113805
20
-78.682867399020097
10
-335.31394743113799
20
-78.682867399020097
42
-0.4142135623730222
10
-335.81394743113799
20
-78.182867399020097
10
-335.81394743113799
20
-65.182867399020097
42
-0.41421356237318868
10
-335.31394743113799
20
-64.682867399020097
10
-322.31394743113805
20
-64.682867399020111
42
-0.4142135623730222
10
-321.81394743113805
20
-65.182867399020097
10
-321.81394743113805
20
-78.182867399020097
42
-0.4142135623731939
0
LWPOLYLINE
5
251
100
AcDbEntity
8
0
100
AcDbPolyline
90
8
70
1
43
0.0
10
-284.30769743113802
20
-70.720867399020108
42
0.41421356237309503
10
-284.80769743113802
20
-71.220867399020094
10
-284.80769743113802
20
-76.970867399020094
42
0.41421356237313145
10
-284.30769743113802
20
-77.470867399020094
10
-271.30769743113802
20
-77.470867399020079
42
0.4142135623730846
10
-270.80769743113808
20
-76.970867399020094
10
-270.80769743113802
20
-71.220867399020094
42
0.41421356237312623
10
-271.30769743113802
20
-70.720867399020094
0
LWPOLYLINE
5
252
100
AcDbEntity
8
0
100
AcDbPolyline
90
8
70
1
43
0.0
10
-316.76394743113798
20
-97.232867399020094
42
0.4142135623730846
10
-316.26394743113798
20
-97.73286739902008
10
-303.26394743113798
20
-97.732867399020108
42
0.41421356237309503
10
-302.76394743113798
20
-97.232867399020094
10
-302.76394743113798
20
-84.232867399020094
42
0.41421356237309503
10
-303.26394743113798
20
-83.732867399020108
10
-316.26394743113798
20
-83.73286739902008
42
0.4142135623730846
10
-316.76394743113798
20
-84.232867399020094
0
LWPOLYLINE
5
253
100
AcDbEntity
8
0
100
AcDbPolyline
90
8
70
1
43
0.0
10
-354.363947431138
20
-7.5328673990201498
10
-341.36394743113806
20
-7.5328673990201223
42
-0.41421356237309243
10
-340.863947431138
20
-8.0328673990201604
10
-340.86394743113806
20
-21.032867399020102
42
-0.4142135623731939
10
-341.36394743113806
20
-21.532867399020098
10
-354.363947431138
20
-21.532867399020141
42
-0.41421356237309243
10
-354.86394743113806
20
-21.032867399020102
10
-354.863947431138
20
-8.0328673990201604
42
-0.41421356237319257
0
LWPOLYLINE
5
254
100
AcDbEntity
8
0
100
AcDbPolyline
90
8
70
1
43
0.0
10
-164.363947431138
20
-78.182867399020097
42
0.41421356237313667
10
-163.863947431138
20
-78.682867399020111
10
-150.863947431138
20
-78.682867399020097
42
0.41421356237311063
10
-150.363947431138
20
-78.182867399020097
10
-150.363947431138
20
-65.182867399020097
42
0.41421356237310025
10
-150.863947431138
20
-64.682867399020097
10
-163.863947431138
20
-64.682867399020097
42
0.41421356237313667
10
-164.363947431138
20
-65.182867399020097
0
LWPOLYLINE
5
255
100
AcDbEntity
8
0
100
AcDbPolyline
90
8
70
1
43
0.0
10
-159.60144743113804
20
-40.08286739902011
42
0.41421356237307422
10
-159.10144743113801
20
-40.582867399020117
10
-146.10144743113801
20
-40.582867399020103
42
0.41421356237310025
10
-145.60144743113801
20
-40.08286739902011
10
-145.60144743113801
20
-27.082867399020103
42
0.41421356237307161
10
-146.10144743113801
20
-26.582867399020103
10
-159.10144743113801
20
-26.582867399020103
42
0.41421356237310025
10
-159.60144743113801
20
-27.082867399020103
0
LWPOLYLINE
5
256
100
AcDbEntity
8
0
100
AcDbPolyline
90
8
70
1
43
0.0
10
-25.751447431138299
20
-64.682867399020097
10
-12.751447431138301
20
-64.682867399020097
42
-0.41421356237309631
10
-12.251447431138301
20
-65.182867399020097
10
-12.251447431138311
20
-78.182867399020097
42
-0.4142135623730846
10
-12.751447431138301
20
-78.682867399020097
10
-25.751447431138299
20
-78.682867399020097
42
-0.41421356237309764
10
-26.251447431138295
20
-78.182867399020097
10
-26.251447431138288
20
-65.182867399020097
42
-0.41421356237310025
0
LWPOLYLINE
5
257
100
AcDbEntity
8
0
100
AcDbPolyline
90
8
70
1
43
0.0
10
-83.40144743113818
20
-40.08286739902011
42
0.41421356237308982
10
-82.901447431138209
20
-40.582867399020103
10
-69.901447431138195
20
-40.582867399020103
42
0.41421356237309503
10
-69.401447431138195
20
-40.08286739902011
10
-69.401447431138209
20
-27.082867399020103
42
0.41421356237309764
10
-69.901447431138195
20
-26.582867399020103
10
-82.901447431138195
20
-26.582867399020103
42
0.41421356237310025
10
-83.401447431138195
20
-27.082867399020103
0
LWPOLYLINE
5
258
100
AcDbEntity
8
0
100
AcDbPolyline
90
8
70
1
43
0.0
10
-36.063947431138303
20
-65.182867399020097
10
-36.063947431138324
20
-78.182867399020097
42
-0.41421356237308204
10
-36.563947431138303
20
-78.682867399020097
10
-49.563947431138303
20
-78.682867399020097
42
-0.4142135623730846
10
-50.063947431138295
20
-78.182867399020097
10
-50.063947431138303
20
-65.182867399020097
42
-0.41421356237309503
10
-49.563947431138303
20
-64.682867399020097
10
-36.563947431138303
20
-64.682867399020097
42
-0.41421356237309764
0
LWPOLYLINE
5
259
100
AcDbEntity
8
0
100
AcDbPolyline
90
8
70
1
43
0.0
10
-354.363947431138
20
-64.682867399020097
10
-341.36394743113806
20
-64.682867399020111
42
-0.4142135623730222
10
-340.86394743113806
20
-65.182867399020097
10
-340.86394743113806
20
-78.182867399020097
42
-0.4142135623731939
10
-341.36394743113806
20
-78.682867399020097
10
-354.363947431138
20
-78.682867399020154
42
-0.41421356237309503
10
-354.86394743113806
20
-78.182867399020097
10
-354.863947431138
20
-65.182867399020097
42
-0.41421356237318868
0
LWPOLYLINE
5
260
100
AcDbEntity
8
0
100
AcDbPolyline
90
8
70
1
43
0.0
10
-302.76394743113798
20
-65.182867399020097
10
-302.76394743113798
20
-78.182867399020097
42
-0.41421356237309503
10
-303.26394743113798
20
-78.682867399020097
10
-316.26394743113798
20
-78.682867399020097
42
-0.41421356237312623
10
-316.76394743113798
20
-78.182867399020097
10
-316.76394743113798
20
-65.182867399020097
42
-0.4142135623730222
10
-316.26394743113798
20
-64.682867399020097
10
-303.26394743113798
20
-64.682867399020097
42
-0.41421356237313667
0
LWPOLYLINE
5
261
100
AcDbEntity
8
0
100
AcDbPolyline
90
8
70
1
43
0.0
10
-211.988947431138
20
-97.232867399020094
10
-211.98894743113806
20
-84.232867399020094
42
-0.4142135623730846
10
-211.488947431138
20
-83.73286739902008
10
-198.48894743113803
20
-83.732867399020108
42
-0.4142135623730846
10
-197.98894743113803
20
-84.232867399020094
10
-197.988947431138
20
-97.232867399020094
42
-0.4142135623730846
10
-198.48894743113803
20
-97.732867399020108
10
-211.488947431138
20
-97.73286739902008
42
-0.4142135623730846
0
LWPOLYLINE
5
262
100
AcDbEntity
8
0
100
AcDbPolyline
90
8
70
1
43
0.0
10
-187.67644743113803
20
-45.632867399020107
10
-174.676447431138
20
-45.632867399020114
42
-0.41421356237312623
10
-174.176447431138
20
-46.1328673990201
10
-174.17644743113806
20
-59.1328673990201
42
-0.4142135623730222
10
-174.676447431138
20
-59.6328673990201
10
-187.67644743113803
20
-59.6328673990201
42
-0.41421356237313145
10
-188.17644743113803
20
-59.1328673990201
10
-188.17644743113806
20
-46.1328673990201
42
-0.41421356237307422
0
LWPOLYLINE
5
263
100
AcDbEntity
8
0
100
AcDbPolyline
90
8
70
1
43
0.0
10
-193.72644743113801
20
-59.6328673990201
42
0.4142135623730222
10
-193.22644743113807
20
-59.1328673990201
10
-193.22644743113801
20
-46.1328673990201
42
0.41421356237312623
10
-193.72644743113801
20
-45.632867399020107
10
-206.72644743113804
20
-45.632867399020107
42
0.41421356237307422
10
-207.22644743113804
20
-46.1328673990201
10
-207.22644743113804
20
-59.1328673990201
42
0.41421356237313145
10
-206.72644743113804
20
-59.6328673990201
0
LWPOLYLINE
5
264
100
AcDbEntity
8
0
100
AcDbPolyline
90
8
70
1
43
0.0
10
-245.32644743113804
20
-59.1328673990201
10
-245.32644743113798
20
-46.1328673990201
42
-0.4142135623730222
10
-244.82644743113804
20
-45.632867399020107
10
-231.82644743113801
20
-45.6328673990201
42
-0.41421356237313667
10
-231.32644743113801
20
-46.1328673990201
10
-231.32644743113798
20
-59.1328673990201
42
-0.41421356237307422
10
-231.82644743113801
20
-59.6328673990201
10
-244.82644743113804
20
-59.632867399020085
42
-0.41421356237312101
0
LWPOLYLINE
5
265
100
AcDbEntity
8
0
100
AcDbPolyline
90
8
70
1
43
0.0
10
-97.188947431138217
20
-83.732867399020108
10
-84.188947431138217
20
-83.732867399020122
42
-0.41421356237312623
10
-83.688947431138217
20
-84.232867399020094
10
-83.688947431138203
20
-97.232867399020094
42
-0.41421356237307422
10
-84.188947431138217
20
-97.732867399020108
10
-97.188947431138217
20
-97.732867399020066
42
-0.41421356237312623
10
-97.688947431138203
20
-97.232867399020094
10
-97.688947431138203
20
-84.232867399020094
42
-0.41421356237307422
0
LWPOLYLINE
5
266
100
AcDbEntity
8
0
100
AcDbPolyline
90
8
70
1
43
0.0
10
-46.088947431138301
20
-97.732867399020108
10
-59.088947431138301
20
-97.73286739902008
42
-0.41421356237310542
10
-59.588947431138301
20
-97.232867399020094
10
-59.588947431138315
20
-84.232867399020108
42
-0.41421356237307944
10
-59.088947431138301
20
-83.73286739902008
10
-46.088947431138301
20
-83.732867399020108
42
-0.41421356237310025
10
-45.588947431138308
20
-84.232867399020094
10
-45.588947431138294
20
-97.232867399020094
42
-0.41421356237307422
0
LWPOLYLINE
5
267
100
AcDbEntity
8
0
100
AcDbPolyline
90
8
70
1
43
0.0
10
-23.370197431138301
20
-26.582867399020103
42
0.41421356237309503
10
-23.870197431138301
20
-27.082867399020103
10
-23.870197431138301
20
-40.08286739902011
42
0.41421356237309503
10
-23.370197431138301
20
-40.582867399020103
10
-10.370197431138299
20
-40.582867399020103
42
0.41421356237309503
10
-9.8701974311382905
20
-40.08286739902011
10
-9.8701974311382994
20
-27.082867399020103
42
0.41421356237309631
10
-10.370197431138299
20
-26.582867399020103
0
LWPOLYLINE
5
268
100
AcDbEntity
8
0
100
AcDbPolyline
90
8
70
1
43
0.0
10
-102.738947431138
20
-84.232867399020094
10
-102.738947431138
20
-97.232867399020094
42
-0.41421356237307422
10
-103.238947431138
20
-97.732867399020108
10
-116.23894743113802
20
-97.732867399020108
42
-0.41421356237307422
10
-116.73894743113803
20
-97.232867399020094
10
-116.73894743113803
20
-84.232867399020094
42
-0.41421356237307422
10
-116.23894743113802
20
-83.73286739902008
10
-103.238947431138
20
-83.732867399020108
42
-0.41421356237312623
0
LWPOLYLINE
5
269
100
AcDbEntity
8
0
100
AcDbPolyline
90
8
70
1
43
0.0
10
-183.41394743113801
20
-78.182867399020097
42
0.41421356237313667
10
-182.91394743113801
20
-78.682867399020111
10
-169.91394743113801
20
-78.682867399020097
42
0.41421356237307422
10
-169.41394743113801
20
-78.182867399020097
10
-169.41394743113801
20
-65.182867399020097
42
0.41421356237312623
10
-169.91394743113801
20
-64.682867399020097
10
-182.91394743113801
20
-64.682867399020097
42
0.41421356237307422
10
-183.41394743113801
20
-65.182867399020097
0
LWPOLYLINE
5
270
100
AcDbEntity
8
0
100
AcDbPolyline
90
8
70
1
43
0.0
10
-88.951447431138206
20
-40.582867399020103
10
-101.95144743113801
20
-40.582867399020117
42
-0.41421356237309503
10
-102.45144743113801
20
-40.08286739902011
10
-102.45144743113801
20
-27.082867399020103
42
-0.41421356237311585
10
-101.95144743113801
20
-26.582867399020103
10
-88.951447431138206
20
-26.582867399020099
42
-0.41421356237309243
10
-88.451447431138206
20
-27.082867399020103
10
-88.451447431138206
20
-40.08286739902011
42
-0.41421356237311585
0
CIRCLE
5
271
100
AcDbEntity
8
0
100
AcDbCircle
10
-328.77518788064998
20
-52.59999882429841
30
0
40
2.5
210
0
220
-0
230
1
0
CIRCLE
5
272
100
AcDbEntity
8
0
100
AcDbCircle
10
-321.59999281168007
20
-52.59999882429841
30
0
40
2.5
210
0
220
-0
230
1
0
CIRCLE
5
273
100
AcDbEntity
8
0
100
AcDbCircle
10
-335.99999248981499
20
-52.59999882429841
30
0
40
2.5
210
0
220
-0
230
1
0
CIRCLE
5
274
100
AcDbEntity
8
0
100
AcDbCircle
10
-191.00560286083504
20
-61.15619442646981
30
0
40
2.5
210
0
220
-0
230
1
0
CIRCLE
5
275
100
AcDbEntity
8
0
100
AcDbCircle
10
-191.88629568562999
20
-21.274362413940899
30
0
40
2.5
210
0
220
-0
230
1
0
LWPOLYLINE
5
276
100
AcDbEntity
8
0
100
AcDbPolyline
90
4
70
1
43
0.0
10
-297.45398453620976
20
-94.756863856386104
42
0.99999999999999989
10
-293.33134830543429
20
-94.756863856386104
10
-293.33134830543429
20
-10.140090579525701
42
0.99999999999999989
10
-297.45398453620999
20
-10.140090579525705
0
LWPOLYLINE
5
277
100
AcDbEntity
8
0
100
AcDbPolyline
90
4
70
1
43
0.0
10
-302.80099928353297
20
-40.575996130138101
10
-316.800998491928
20
-40.575996130138101
10
-316.800998491928
20
-26.575996921744004
10
-302.80099928353297
20
-26.575996921744004
0
LWPOLYLINE
5
278
100
AcDbEntity
8
0
100
AcDbPolyline
90
4
70
1
43
0.0
10
-307.59266555439723
20
-47.345133465859405
42
0.51298917604263028
10
-307.59266555439717
20
-57.904160672736261
42
-0.61091379785537225
10
-307.72460999884203
20
-58.784079606642436
42
-1.3923991921155887
10
-307.72460999884203
20
-46.465214531953443
42
-0.6109137978553556
0
LWPOLYLINE
5
279
100
AcDbEntity
8
0
100
AcDbPolyline
90
4
70
1
43
0.0
10
-350.10933617028081
20
-57.90416067273641
42
0.51298917604263161
10
-350.10933617028093
20
-47.345133465859568
42
-0.61091379785542055
10
-349.97739172583601
20
-46.465214531953407
42
-1.3923991921155991
10
-349.97739172583601
20
-58.784079606642337
42
-0.61091379785543987
0
ENDSEC
0
SECTION
2
OBJECTS
0
DICTIONARY
5
C
100
AcDbDictionary
3
ACAD_GROUP
350
D
3
ACAD_MLINESTYLE
350
17
0
DICTIONARY
5
D
100
AcDbDictionary
0
DICTIONARY
5
1A
330
C
100
AcDbDictionary
0
DICTIONARY
5
17
100
AcDbDictionary
0
ENDSEC
0
EOF
