0
SECTION
2
HEADER
9
$INSUNITS
70
4
9
$ACADVER
1
AC1014
9
$HANDSEED
5
FFFF
0
ENDSEC
0
SECTION
2
TABLES
0
TABLE
2
VPORT
5
8
100
AcDbSymbolTable
0
ENDTAB
0
TABLE
2
LTYPE
5
5
100
AcDbSymbolTable
0
LTYPE
5
14
100
AcDbSymbolTableRecord
100
AcDbLinetypeTableRecord
2
BYBLOCK
70
0
0
LTYPE
5
15
100
AcDbSymbolTableRecord
100
AcDbLinetypeTableRecord
2
BYLAYER
70
0
0
ENDTAB
0
TABLE
2
LAYER
5
2
100
AcDbSymbolTable
70
2
0
LAYER
5
50
100
AcDbSymbolTableRecord
100
AcDbLayerTableRecord
2
0
70
0
6
CONTINUOUS
0
ENDTAB
0
TABLE
2
STYLE
5
3
100
AcDbSymbolTable
70
1
0
STYLE
5
11
100
AcDbSymbolTableRecord
100
AcDbTextStyleTableRecord
2
STANDARD
70
0
0
ENDTAB
0
TABLE
2
VIEW
5
6
100
AcDbSymbolTable
70
0
0
ENDTAB
0
TABLE
2
UCS
5
7
100
AcDbSymbolTable
70
0
0
ENDTAB
0
TABLE
2
APPID
5
9
100
AcDbSymbolTable
70
2
0
APPID
5
12
100
AcDbSymbolTableRecord
100
AcDbRegAppTableRecord
2
ACAD
70
0
0
ENDTAB
0
TABLE
2
DIMSTYLE
5
A
100
AcDbSymbolTable
70
1
0
ENDTAB
0
TABLE
2
BLOCK_RECORD
5
1
100
AcDbSymbolTable
70
1
0
BLOCK_RECORD
5
1F
100
AcDbSymbolTableRecord
100
AcDbBlockTableRecord
2
*MODEL_SPACE
0
BLOCK_RECORD
5
1B
100
AcDbSymbolTableRecord
100
AcDbBlockTableRecord
2
*PAPER_SPACE
0
ENDTAB
0
ENDSEC
0
SECTION
2
BLOCKS
0
BLOCK
5
20
100
AcDbEntity
100
AcDbBlockBegin
2
*MODEL_SPACE
0
ENDBLK
5
21
100
AcDbEntity
100
AcDbBlockEnd
0
BLOCK
5
1C
100
AcDbEntity
100
AcDbBlockBegin
2
*PAPER_SPACE
0
ENDBLK
5
1D
100
AcDbEntity
100
AcDbBlockEnd
0
ENDSEC
0
SECTION
2
ENTITIES
0
LWPOLYLINE
5
100
100
AcDbEntity
8
0
100
AcDbPolyline
90
8
70
1
43
0.0
10
-149.57644743113818
20
-45.632867399020121
42
0.41421356237310542
10
-150.07644743113818
20
-46.132867399020121
10
-150.07644743113818
20
-59.132867399020121
42
0.41421356237309503
10
-149.57644743113818
20
-59.632867399020114
10
-136.57644743113818
20
-59.632867399020114
42
0.41421356237310025
10
-136.07644743113821
20
-59.132867399020121
10
-136.07644743113818
20
-46.132867399020121
42
0.41421356237307944
10
-136.57644743113818
20
-45.632867399020121
0
LWPOLYLINE
5
101
100
AcDbEntity
8
0
100
AcDbPolyline
90
8
70
1
43
0.0
10
-108.0014474311382
20
-40.582867399020131
10
-121.00144743113816
20
-40.582867399020152
42
-0.41421356237307944
10
-121.50144743113819
20
-40.082867399020131
10
-121.50144743113816
20
-27.082867399020145
42
-0.41421356237310025
10
-121.00144743113817
20
-26.582867399020145
10
-108.0014474311382
20
-26.582867399020142
42
-0.41421356237307161
10
-107.5014474311382
20
-27.082867399020145
10
-107.50144743113822
20
-40.082867399020131
42
-0.41421356237310542
0
LWPOLYLINE
5
102
100
AcDbEntity
8
0
100
AcDbPolyline
90
8
70
1
43
0.0
10
-126.5514474311382
20
-27.082867399020145
42
0.41421356237309243
10
-127.0514474311382
20
-26.582867399020142
10
-140.05144743113817
20
-26.582867399020145
42
0.41421356237310542
10
-140.55144743113817
20
-27.082867399020145
10
-140.55144743113817
20
-40.082867399020131
42
0.41421356237310025
10
-140.05144743113817
20
-40.582867399020131
10
-127.0514474311382
20
-40.582867399020131
42
0.41421356237310542
10
-126.5514474311382
20
-40.082867399020131
0
LWPOLYLINE
5
103
100
AcDbEntity
8
0
100
AcDbPolyline
90
8
70
1
43
0.0
10
-40.038947431138261
20
-83.732867399020108
10
-27.038947431138276
20
-83.732867399020108
42
-0.41421356237310542
10
-26.538947431138276
20
-84.232867399020108
10
-26.538947431138272
20
-97.23286739902008
42
-0.41421356237309243
10
-27.038947431138276
20
-97.73286739902008
10
-40.038947431138261
20
-97.73286739902008
42
-0.41421356237308982
10
-40.538947431138261
20
-97.23286739902008
10
-40.538947431138268
20
-84.232867399020108
42
-0.41421356237309503
0
LWPOLYLINE
5
104
100
AcDbEntity
8
0
100
AcDbPolyline
90
8
70
1
43
0.0
10
-40.826447431138256
20
-46.132867399020121
10
-40.826447431138256
20
-59.132867399020121
42
-0.41421356237309503
10
-41.326447431138256
20
-59.632867399020114
10
-54.326447431138249
20
-59.632867399020114
42
-0.41421356237309503
10
-54.826447431138241
20
-59.132867399020121
10
-54.826447431138241
20
-46.132867399020121
42
-0.41421356237310542
10
-54.326447431138249
20
-45.632867399020121
10
-41.326447431138256
20
-45.632867399020121
42
-0.41421356237310542
0
LWPOLYLINE
5
105
100
AcDbEntity
8
0
100
AcDbPolyline
90
8
70
1
43
0.0
10
-44.801447431138257
20
-26.582867399020145
42
0.41421356237309764
10
-45.301447431138243
20
-27.082867399020145
10
-45.301447431138257
20
-40.082867399020131
42
0.41421356237310542
10
-44.801447431138257
20
-40.582867399020131
10
-31.801447431138268
20
-40.582867399020131
42
0.41421356237309764
10
-31.301447431138271
20
-40.082867399020131
10
-31.301447431138271
20
-27.082867399020145
42
0.41421356237309503
10
-31.801447431138268
20
-26.582867399020145
0
LWPOLYLINE
5
106
100
AcDbEntity
8
0
100
AcDbPolyline
90
8
70
1
43
0.0
10
-200.37019743113814
20
-8.0328673990201551
10
-200.37019743113814
20
-21.032867399020155
42
-0.41421356237305079
10
-200.87019743113814
20
-21.532867399020152
10
-213.87019743113811
20
-21.532867399020176
42
-0.41421356237310281
10
-214.37019743113811
20
-21.032867399020155
10
-214.37019743113811
20
-8.0328673990201551
42
-0.41421356237310153
10
-213.87019743113811
20
-7.5328673990201498
10
-200.87019743113814
20
-7.5328673990201391
42
-0.41421356237310086
0
LWPOLYLINE
5
107
100
AcDbEntity
8
0
100
AcDbPolyline
90
8
70
1
43
0.0
10
-184.20144743113815
20
-40.582867399020131
42
0.4142135623730222
10
-183.70144743113821
20
-40.082867399020131
10
-183.70144743113815
20
-27.082867399020145
42
0.41421356237310025
10
-184.20144743113815
20
-26.582867399020138
10
-197.20144743113815
20
-26.582867399020145
42
0.41421356237304563
10
-197.70144743113815
20
-27.082867399020145
10
-197.70144743113815
20
-40.082867399020131
42
0.41421356237312623
10
-197.20144743113815
20
-40.582867399020131
0
LWPOLYLINE
5
108
100
AcDbEntity
8
0
100
AcDbPolyline
90
8
70
1
43
0.0
10
-203.2514474311381
20
-40.582867399020131
42
0.4142135623730222
10
-202.75144743113813
20
-40.082867399020131
10
-202.75144743113813
20
-27.082867399020145
42
0.41421356237309764
10
-203.2514474311381
20
-26.582867399020145
10
-216.2514474311381
20
-26.582867399020145
42
0.41421356237307683
10
-216.7514474311381
20
-27.082867399020145
10
-216.7514474311381
20
-40.082867399020131
42
0.41421356237313667
10
-216.2514474311381
20
-40.582867399020131
0
LWPOLYLINE
5
109
100
AcDbEntity
8
0
100
AcDbPolyline
90
8
70
1
43
0.0
10
-271.02019743113806
20
-26.582867399020145
10
-258.02019743113812
20
-26.582867399020131
42
-0.41421356237310025
10
-257.52019743113812
20
-27.082867399020145
10
-257.52019743113812
20
-40.082867399020131
42
-0.4142135623730222
10
-258.02019743113812
20
-40.582867399020131
10
-271.02019743113806
20
-40.582867399020145
42
-0.41421356237313667
10
-271.52019743113806
20
-40.082867399020131
10
-271.52019743113806
20
-27.082867399020145
42
-0.41421356237307683
0
LWPOLYLINE
5
110
100
AcDbEntity
8
0
100
AcDbPolyline
90
8
70
1
43
0.0
10
-248.49519743113808
20
-21.532867399020152
42
0.41421356237305079
10
-247.99519743113808
20
-21.032867399020155
10
-247.99519743113808
20
-8.0328673990201551
42
0.41421356237310153
10
-248.49519743113808
20
-7.5328673990201667
10
-261.49519743113808
20
-7.5328673990201667
42
0.4142135623730781
10
-261.99519743113808
20
-8.0328673990201551
10
-261.99519743113808
20
-21.032867399020155
42
0.41421356237313406
10
-261.49519743113808
20
-21.532867399020152
0
LWPOLYLINE
5
111
100
AcDbEntity
8
0
100
AcDbPolyline
90
8
70
1
43
0.0
10
-256.35094743113808
20
-83.232867399020094
10
-256.35094743113814
20
-96.23286739902008
42
-0.41421356237307422
10
-256.85094743113808
20
-96.73286739902008
10
-262.60094743113808
20
-96.732867399020094
42
-0.41421356237309503
10
-263.10094743113808
20
-96.23286739902008
10
-263.10094743113808
20
-83.232867399020094
42
-0.4142135623730846
10
-262.60094743113808
20
-82.732867399020108
10
-256.85094743113808
20
-82.732867399020066
42
-0.41421356237310542
0
LWPOLYLINE
5
112
100
AcDbEntity
8
0
100
AcDbPolyline
90
8
70
1
43
0.0
10
-82.557697431138223
20
-7.032867399020164
42
0.41421356237307422
10
-83.057697431138223
20
-6.5328673990201569
10
-88.807697431138223
20
-6.5328673990201551
42
0.41421356237307294
10
-89.307697431138223
20
-7.0328673990201622
10
-89.307697431138223
20
-20.032867399020159
42
0.41421356237307422
10
-88.807697431138223
20
-20.532867399020166
10
-83.057697431138223
20
-20.532867399020148
42
0.41421356237309764
10
-82.557697431138223
20
-20.032867399020159
0
LWPOLYLINE
5
113
100
AcDbEntity
8
0
100
AcDbPolyline
90
8
70
1
43
0.0
10
-140.83894743113817
20
-84.232867399020108
10
-140.83894743113817
20
-97.23286739902008
42
-0.41421356237309503
10
-141.33894743113817
20
-97.73286739902008
10
-154.33894743113817
20
-97.73286739902008
42
-0.41421356237307422
10
-154.83894743113817
20
-97.23286739902008
10
-154.83894743113817
20
-84.232867399020108
42
-0.41421356237307422
10
-154.33894743113817
20
-83.732867399020108
10
-141.33894743113817
20
-83.732867399020108
42
-0.41421356237309503
0
LWPOLYLINE
5
114
100
AcDbEntity
8
0
100
AcDbPolyline
90
8
70
1
43
0.0
10
-164.65144743113814
20
-27.082867399020145
42
0.41421356237310025
10
-165.15144743113814
20
-26.582867399020131
10
-178.15144743113817
20
-26.582867399020145
42
0.41421356237307683
10
-178.65144743113817
20
-27.082867399020145
10
-178.65144743113817
20
-40.082867399020131
42
0.41421356237313667
10
-178.15144743113817
20
-40.582867399020131
10
-165.15144743113814
20
-40.582867399020131
42
0.4142135623730222
10
-164.65144743113814
20
-40.082867399020131
0
LWPOLYLINE
5
115
100
AcDbEntity
8
0
100
AcDbPolyline
90
8
70
1
43
0.0
10
-47.182697431138251
20
-7.5328673990201516
10
-34.182697431138266
20
-7.5328673990201578
42
-0.41421356237309631
10
-33.682697431138266
20
-8.0328673990201587
10
-33.682697431138266
20
-21.032867399020155
42
-0.41421356237309503
10
-34.182697431138266
20
-21.532867399020152
10
-47.182697431138251
20
-21.532867399020152
42
-0.41421356237309503
10
-47.682697431138251
20
-21.032867399020155
10
-47.682697431138251
20
-8.0328673990201587
42
-0.41421356237309764
0
LWPOLYLINE
5
116
100
AcDbEntity
8
0
100
AcDbPolyline
90
8
70
1
43
0.0
10
-271.30769743113808
20
-53.594867399020117
42
0.41421356237307422
10
-270.80769743113802
20
-53.094867399020124
10
-270.80769743113808
20
-47.344867399020117
42
0.41421356237313667
10
-271.30769743113808
20
-46.844867399020124
10
-284.30769743113808
20
-46.844867399020124
42
0.4142135623730222
10
-284.80769743113808
20
-47.344867399020117
10
-284.80769743113808
20
-53.094867399020124
42
0.41421356237312101
10
-284.30769743113808
20
-53.594867399020117
0
LWPOLYLINE
5
117
100
AcDbEntity
8
0
100
AcDbPolyline
90
8
70
1
43
0.0
10
-285.30769743113802
20
-55.15786739902012
42
0.41421356237307422
10
-285.80769743113808
20
-55.65786739902012
10
-285.80769743113808
20
-68.657867399020105
42
0.41421356237313145
10
-285.30769743113802
20
-69.15786739902012
10
-272.30769743113802
20
-69.157867399020105
42
0.4142135623730222
10
-271.80769743113802
20
-68.657867399020105
10
-271.80769743113802
20
-55.65786739902012
42
0.41421356237312101
10
-272.30769743113802
20
-55.157867399020127
0
LWPOLYLINE
5
118
100
AcDbEntity
8
0
100
AcDbPolyline
90
8
70
1
43
0.0
10
-273.08319743113805
20
-26.082867399020138
10
-273.08319743113805
20
-39.082867399020131
42
-0.41421356237308204
10
-273.58319743113805
20
-39.582867399020131
10
-279.33319743113805
20
-39.582867399020152
42
-0.41421356237310281
10
-279.83319743113805
20
-39.082867399020131
10
-279.83319743113805
20
-26.082867399020138
42
-0.41421356237304563
10
-279.33319743113805
20
-25.582867399020142
10
-273.58319743113805
20
-25.582867399020142
42
-0.41421356237313145
0
LWPOLYLINE
5
119
100
AcDbEntity
8
0
100
AcDbPolyline
90
8
70
1
43
0.0
10
-321.81394743113805
20
-84.232867399020108
10
-321.81394743113799
20
-97.23286739902008
42
-0.41421356237313667
10
-322.31394743113805
20
-97.73286739902008
10
-335.3139474311381
20
-97.732867399020066
42
-0.4142135623730222
10
-335.81394743113805
20
-97.23286739902008
10
-335.81394743113805
20
-84.232867399020108
42
-0.41421356237312623
10
-335.3139474311381
20
-83.732867399020108
10
-322.31394743113805
20
-83.732867399020122
42
-0.4142135623730222
0
LWPOLYLINE
5
120
100
AcDbEntity
8
0
100
AcDbPolyline
90
8
70
1
43
0.0
10
-302.76394743113804
20
-8.0328673990201551
42
0.41421356237313273
10
-303.26394743113804
20
-7.5328673990201551
10
-316.26394743113804
20
-7.5328673990201667
42
0.4142135623730781
10
-316.76394743113804
20
-8.0328673990201551
10
-316.76394743113804
20
-21.032867399020155
42
0.41421356237313406
10
-316.26394743113804
20
-21.532867399020162
10
-303.26394743113804
20
-21.532867399020152
42
0.41421356237308204
10
-302.76394743113804
20
-21.032867399020155
0
LWPOLYLINE
5
121
100
AcDbEntity
8
0
100
AcDbPolyline
90
8
70
1
43
0.0
10
-322.31394743113805
20
-21.532867399020152
10
-335.3139474311381
20
-21.532867399020141
42
-0.4142135623730222
10
-335.81394743113805
20
-21.032867399020148
10
-335.81394743113805
20
-8.0328673990201551
42
-0.41421356237310936
10
-335.3139474311381
20
-7.5328673990201489
10
-322.31394743113805
20
-7.532867399020172
42
-0.41421356237301893
10
-321.81394743113805
20
-8.0328673990201551
10
-321.81394743113805
20
-21.032867399020155
42
-0.4142135623731939
0
LWPOLYLINE
5
122
100
AcDbEntity
8
0
100
AcDbPolyline
90
8
70
1
43
0.0
10
-341.36394743113806
20
-97.73286739902008
42
0.41421356237313667
10
-340.863947431138
20
-97.23286739902008
10
-340.863947431138
20
-84.232867399020108
42
0.41421356237309503
10
-341.36394743113806
20
-83.732867399020108
10
-354.363947431138
20
-83.732867399020108
42
0.41421356237313667
10
-354.86394743113806
20
-84.232867399020108
10
-354.86394743113806
20
-97.23286739902008
42
0.41421356237309503
10
-354.363947431138
20
-97.73286739902008
0
LWPOLYLINE
5
123
100
AcDbEntity
8
0
100
AcDbPolyline
90
8
70
1
43
0.0
10
-285.80769743113808
20
-21.032867399020155
10
-285.80769743113808
20
-8.0328673990201551
42
-0.41421356237313273
10
-285.30769743113802
20
-7.5328673990201489
10
-272.30769743113802
20
-7.5328673990201818
42
-0.41421356237309631
10
-271.80769743113808
20
-8.0328673990201551
10
-271.80769743113802
20
-21.032867399020155
42
-0.41421356237305079
10
-272.30769743113802
20
-21.532867399020152
10
-285.30769743113802
20
-21.532867399020155
42
-0.41421356237313406
0
LWPOLYLINE
5
124
100
AcDbEntity
8
0
100
AcDbPolyline
90
8
70
1
43
0.0
10
-168.62644743113816
20
-45.632867399020121
10
-155.62644743113816
20
-45.632867399020107
42
-0.41421356237310025
10
-155.12644743113813
20
-46.132867399020121
10
-155.12644743113813
20
-59.132867399020121
42
-0.41421356237308982
10
-155.62644743113816
20
-59.632867399020114
10
-168.62644743113816
20
-59.632867399020114
42
-0.41421356237313145
10
-169.12644743113816
20
-59.132867399020121
10
-169.12644743113819
20
-46.132867399020121
42
-0.41421356237307422
0
LWPOLYLINE
5
125
100
AcDbEntity
8
0
100
AcDbPolyline
90
8
70
1
43
0.0
10
-7.9889474311382891
20
-97.73286739902008
42
0.4142135623730937
10
-7.4889474311382838
20
-97.23286739902008
10
-7.4889474311382891
20
-84.232867399020108
42
0.41421356237310542
10
-7.9889474311382891
20
-83.732867399020108
10
-20.988947431138278
20
-83.732867399020108
42
0.41421356237309243
10
-21.488947431138278
20
-84.232867399020108
10
-21.488947431138278
20
-97.23286739902008
42
0.41421356237310542
10
-20.988947431138278
20
-97.73286739902008
0
LWPOLYLINE
5
126
100
AcDbEntity
8
0
100
AcDbPolyline
90
8
70
1
43
0.0
10
-131.81394743113819
20
-78.682867399020097
42
0.41421356237309503
10
-131.31394743113819
20
-78.182867399020097
10
-131.31394743113819
20
-65.182867399020111
42
0.41421356237307944
10
-131.81394743113819
20
-64.682867399020111
10
-144.81394743113816
20
-64.682867399020111
42
0.41421356237310542
10
-145.31394743113816
20
-65.182867399020111
10
-145.31394743113816
20
-78.182867399020097
42
0.41421356237307944
10
-144.81394743113816
20
-78.682867399020097
0
LWPOLYLINE
5
127
100
AcDbEntity
8
0
100
AcDbPolyline
90
8
70
1
43
0.0
10
-64.35144743113824
20
-40.082867399020131
10
-64.35144743113824
20
-27.082867399020145
42
-0.41421356237309503
10
-63.85144743113824
20
-26.582867399020145
10
-50.85144743113824
20
-26.582867399020142
42
-0.41421356237309764
10
-50.351447431138247
20
-27.082867399020145
10
-50.351447431138247
20
-40.082867399020131
42
-0.41421356237310542
10
-50.85144743113824
20
-40.582867399020131
10
-63.85144743113824
20
-40.582867399020131
42
-0.41421356237309503
0
LWPOLYLINE
5
128
100
AcDbEntity
8
0
100
AcDbPolyline
90
8
70
1
43
0.0
10
-236.08894743113808
20
-84.232867399020108
10
-236.08894743113808
20
-97.23286739902008
42
-0.41421356237313667
10
-236.58894743113808
20
-97.73286739902008
10
-249.58894743113808
20
-97.732867399020108
42
-0.41421356237310542
10
-250.08894743113811
20
-97.23286739902008
10
-250.08894743113808
20
-84.232867399020108
42
-0.41421356237310542
10
-249.58894743113808
20
-83.732867399020108
10
-236.58894743113808
20
-83.732867399020108
42
-0.41421356237313667
0
LWPOLYLINE
5
129
100
AcDbEntity
8
0
100
AcDbPolyline
90
8
70
1
43
0.0
10
-217.53894743113813
20
-97.73286739902008
10
-230.53894743113807
20
-97.732867399020108
42
-0.41421356237310542
10
-231.0389474311381
20
-97.23286739902008
10
-231.03894743113807
20
-84.232867399020108
42
-0.41421356237310542
10
-230.53894743113807
20
-83.732867399020108
10
-217.53894743113813
20
-83.73286739902008
42
-0.41421356237310542
10
-217.0389474311381
20
-84.232867399020108
10
-217.03894743113813
20
-97.23286739902008
42
-0.41421356237310542
0
LWPOLYLINE
5
130
100
AcDbEntity
8
0
100
AcDbPolyline
90
8
70
1
43
0.0
10
-207.51394743113815
20
-65.182867399020111
10
-207.51394743113815
20
-78.182867399020097
42
-0.41421356237307944
10
-208.01394743113815
20
-78.682867399020097
10
-221.01394743113815
20
-78.682867399020083
42
-0.41421356237310025
10
-221.51394743113812
20
-78.182867399020097
10
-221.51394743113821
20
-65.182867399020111
42
-0.41421356237312623
10
-221.01394743113815
20
-64.682867399020111
10
-208.01394743113815
20
-64.682867399020111
42
-0.41421356237313667
0
LWPOLYLINE
5
131
100
AcDbEntity
8
0
100
AcDbPolyline
90
8
70
1
43
0.0
10
-188.80769743113814
20
-6.5328673990201551
42
0.41421356237313273
10
-189.30769743113814
20
-7.0328673990201622
10
-189.30769743113811
20
-20.032867399020159
42
0.41421356237311846
10
-188.80769743113814
20
-20.53286739902013
10
-183.05769743113814
20
-20.532867399020155
42
0.41421356237305079
10
-182.55769743113814
20
-20.032867399020159
10
-182.55769743113817
20
-7.0328673990201622
42
0.41421356237309631
10
-183.05769743113814
20
-6.5328673990201551
0
LWPOLYLINE
5
132
100
AcDbEntity
8
0
100
AcDbPolyline
90
8
70
1
43
0.0
10
-259.11394743113812
20
-64.682867399020111
10
-246.11394743113809
20
-64.682867399020111
42
-0.41421356237313667
10
-245.61394743113809
20
-65.182867399020111
10
-245.61394743113809
20
-78.182867399020097
42
-0.41421356237307944
10
-246.11394743113809
20
-78.682867399020097
10
-259.11394743113812
20
-78.682867399020097
42
-0.41421356237312623
10
-259.61394743113812
20
-78.182867399020097
10
-259.61394743113817
20
-65.182867399020111
42
-0.41421356237312623
0
LWPOLYLINE
5
133
100
AcDbEntity
8
0
100
AcDbPolyline
90
8
70
1
43
0.0
10
-263.8764474311381
20
-45.632867399020121
42
0.4142135623730222
10
-264.3764474311381
20
-46.132867399020121
10
-264.3764474311381
20
-59.132867399020121
42
0.41421356237312101
10
-263.8764474311381
20
-59.632867399020128
10
-250.8764474311381
20
-59.632867399020114
42
0.41421356237307422
10
-250.3764474311381
20
-59.132867399020121
10
-250.3764474311381
20
-46.132867399020121
42
0.41421356237313667
10
-250.8764474311381
20
-45.632867399020121
0
LWPOLYLINE
5
134
100
AcDbEntity
8
0
100
AcDbPolyline
90
8
70
1
43
0.0
10
-9.8706974311382663
20
-46.132867399020121
10
-9.8706974311382663
20
-59.132867399020121
42
-0.41421356237309503
10
-10.370697431138264
20
-59.632867399020114
10
-28.132697431138268
20
-59.632867399020114
42
-0.41421356237309503
10
-28.632697431138268
20
-59.132867399020121
10
-28.632697431138272
20
-46.132867399020121
42
-0.41421356237309764
10
-28.132697431138268
20
-45.632867399020121
10
-10.370697431138264
20
-45.632867399020128
42
-0.41421356237309764
0
LWPOLYLINE
5
135
100
AcDbEntity
8
0
100
AcDbPolyline
90
8
70
1
43
0.0
10
-57.495197431138251
20
-8.0328673990201587
10
-57.495197431138259
20
-21.032867399020155
42
-0.41421356237309764
10
-57.995197431138251
20
-21.532867399020152
10
-70.995197431138223
20
-21.532867399020152
42
-0.41421356237309503
10
-71.495197431138223
20
-21.032867399020155
10
-71.495197431138223
20
-8.0328673990201587
42
-0.41421356237309764
10
-70.995197431138223
20
-7.5328673990201516
10
-57.995197431138251
20
-7.5328673990201551
42
-0.41421356237309764
0
LWPOLYLINE
5
136
100
AcDbEntity
8
0
100
AcDbPolyline
90
8
70
1
43
0.0
10
-79.426447431138229
20
-59.632867399020114
10
-92.426447431138229
20
-59.632867399020128
42
-0.41421356237307422
10
-92.926447431138243
20
-59.132867399020121
10
-92.926447431138229
20
-46.132867399020121
42
-0.41421356237310542
10
-92.426447431138229
20
-45.632867399020121
10
-79.426447431138229
20
-45.632867399020121
42
-0.41421356237309503
10
-78.926447431138229
20
-46.132867399020121
10
-78.926447431138229
20
-59.132867399020121
42
-0.41421356237309503
0
LWPOLYLINE
5
137
100
AcDbEntity
8
0
100
AcDbPolyline
90
8
70
1
43
0.0
10
-93.213947431138223
20
-65.182867399020111
42
0.41421356237311063
10
-93.713947431138223
20
-64.682867399020139
10
-106.71394743113821
20
-64.682867399020111
42
0.41421356237310542
10
-107.21394743113821
20
-65.182867399020111
10
-107.21394743113821
20
-78.182867399020097
42
0.41421356237307944
10
-106.71394743113821
20
-78.682867399020097
10
-93.713947431138223
20
-78.682867399020097
42
0.41421356237311063
10
-93.213947431138223
20
-78.182867399020097
0
LWPOLYLINE
5
138
100
AcDbEntity
8
0
100
AcDbPolyline
90
8
70
1
43
0.0
10
-111.97644743113821
20
-59.132867399020121
10
-111.9764474311382
20
-46.132867399020121
42
-0.41421356237310542
10
-111.47644743113821
20
-45.632867399020121
10
-98.476447431138212
20
-45.632867399020107
42
-0.41421356237307944
10
-97.976447431138197
20
-46.132867399020121
10
-97.976447431138212
20
-59.132867399020121
42
-0.41421356237310025
10
-98.476447431138197
20
-59.632867399020114
10
-111.47644743113821
20
-59.632867399020128
42
-0.41421356237307422
0
LWPOLYLINE
5
139
100
AcDbEntity
8
0
100
AcDbPolyline
90
8
70
1
43
0.0
10
-125.76394743113818
20
-64.682867399020111
42
0.41421356237310542
10
-126.26394743113818
20
-65.182867399020111
10
-126.26394743113819
20
-78.182867399020097
42
0.41421356237307944
10
-125.76394743113818
20
-78.682867399020097
10
-112.76394743113821
20
-78.682867399020097
42
0.41421356237309503
10
-112.26394743113822
20
-78.182867399020097
10
-112.26394743113821
20
-65.182867399020111
42
0.41421356237307944
10
-112.76394743113821
20
-64.682867399020111
0
LWPOLYLINE
5
140
100
AcDbEntity
8
0
100
AcDbPolyline
90
8
70
1
43
0.0
10
-202.46394743113811
20
-78.182867399020097
42
0.41421356237310025
10
-201.96394743113814
20
-78.682867399020083
10
-188.96394743113814
20
-78.682867399020097
42
0.41421356237307944
10
-188.46394743113814
20
-78.182867399020097
10
-188.46394743113814
20
-65.182867399020111
42
0.41421356237313667
10
-188.96394743113814
20
-64.682867399020111
10
-201.96394743113814
20
-64.682867399020111
42
0.4142135623730222
10
-202.46394743113811
20
-65.182867399020111
0
LWPOLYLINE
5
141
100
AcDbEntity
8
0
100
AcDbPolyline
90
8
70
1
43
0.0
10
-131.02644743113819
20
-59.132867399020121
10
-131.02644743113817
20
-46.132867399020121
42
-0.41421356237310542
10
-130.52644743113819
20
-45.632867399020121
10
-117.52644743113819
20
-45.632867399020107
42
-0.41421356237310025
10
-117.02644743113819
20
-46.132867399020121
10
-117.02644743113819
20
-59.132867399020121
42
-0.41421356237308982
10
-117.52644743113819
20
-59.632867399020114
10
-130.52644743113819
20
-59.632867399020128
42
-0.41421356237307422
0
LWPOLYLINE
5
142
100
AcDbEntity
8
0
100
AcDbPolyline
90
8
70
1
43
0.0
10
-128.93269743113817
20
-8.0328673990201569
10
-128.93269743113819
20
-21.032867399020155
42
-0.4142135623730846
10
-129.43269743113819
20
-21.532867399020152
10
-142.43269743113817
20
-21.532867399020162
42
-0.41421356237309503
10
-142.93269743113819
20
-21.032867399020155
10
-142.93269743113819
20
-8.0328673990201551
42
-0.4142135623730937
10
-142.43269743113817
20
-7.5328673990201498
10
-129.43269743113819
20
-7.5328673990201516
42
-0.41421356237307355
0
LWPOLYLINE
5
143
100
AcDbEntity
8
0
100
AcDbPolyline
90
8
70
1
43
0.0
10
-59.876447431138253
20
-46.132867399020121
10
-59.876447431138246
20
-59.132867399020121
42
-0.41421356237309503
10
-60.376447431138239
20
-59.632867399020114
10
-73.376447431138217
20
-59.632867399020114
42
-0.41421356237309503
10
-73.876447431138217
20
-59.132867399020121
10
-73.876447431138217
20
-46.132867399020121
42
-0.41421356237310542
10
-73.376447431138217
20
-45.632867399020121
10
-60.376447431138239
20
-45.632867399020128
42
-0.4142135623730846
0
LWPOLYLINE
5
144
100
AcDbEntity
8
0
100
AcDbPolyline
90
8
70
1
43
0.0
10
-74.16394743113824
20
-65.182867399020111
10
-74.16394743113824
20
-78.182867399020097
42
-0.4142135623730846
10
-74.663947431138226
20
-78.682867399020097
10
-87.663947431138212
20
-78.682867399020125
42
-0.41421356237307944
10
-88.16394743113824
20
-78.182867399020097
10
-88.163947431138212
20
-65.182867399020111
42
-0.41421356237310542
10
-87.663947431138226
20
-64.682867399020111
10
-74.663947431138226
20
-64.682867399020111
42
-0.41421356237309503
0
LWPOLYLINE
5
145
100
AcDbEntity
8
0
100
AcDbPolyline
90
8
70
1
43
0.0
10
-65.138947431138234
20
-97.73286739902008
42
0.41421356237310025
10
-64.63894743113822
20
-97.23286739902008
10
-64.638947431138234
20
-84.232867399020108
42
0.41421356237310542
10
-65.138947431138234
20
-83.732867399020108
10
-78.13894743113822
20
-83.732867399020108
42
0.41421356237310025
10
-78.638947431138234
20
-84.232867399020108
10
-78.63894743113822
20
-97.23286739902008
42
0.41421356237310542
10
-78.13894743113822
20
-97.73286739902008
0
LWPOLYLINE
5
146
100
AcDbEntity
8
0
100
AcDbPolyline
90
8
70
1
43
0.0
10
-192.9389474311381
20
-97.23286739902008
10
-192.9389474311381
20
-84.232867399020108
42
-0.41421356237313667
10
-192.4389474311381
20
-83.732867399020108
10
-179.43894743113816
20
-83.73286739902008
42
-0.41421356237310542
10
-178.93894743113816
20
-84.232867399020108
10
-178.93894743113819
20
-97.23286739902008
42
-0.41421356237310542
10
-179.43894743113816
20
-97.73286739902008
10
-192.4389474311381
20
-97.73286739902008
42
-0.41421356237313667
0
LWPOLYLINE
5
147
100
AcDbEntity
8
0
100
AcDbPolyline
90
8
70
1
43
0.0
10
-221.80144743113812
20
-27.082867399020145
10
-221.80144743113814
20
-40.082867399020131
42
-0.4142135623730222
10
-222.30144743113812
20
-40.582867399020131
10
-235.30144743113809
20
-40.582867399020124
42
-0.41421356237312623
10
-235.80144743113809
20
-40.082867399020131
10
-235.80144743113809
20
-27.082867399020145
42
-0.41421356237304563
10
-235.30144743113809
20
-26.582867399020145
10
-222.30144743113812
20
-26.582867399020131
42
-0.41421356237310025
0
LWPOLYLINE
5
148
100
AcDbEntity
8
0
100
AcDbPolyline
90
8
70
1
43
0.0
10
-238.18269743113808
20
-21.032867399020155
10
-238.18269743113808
20
-8.0328673990201551
42
-0.41421356237313273
10
-237.68269743113808
20
-7.5328673990201498
10
-224.68269743113811
20
-7.5328673990201569
42
-0.41421356237313212
10
-224.18269743113811
20
-8.0328673990201551
10
-224.18269743113811
20
-21.032867399020155
42
-0.41421356237308204
10
-224.68269743113811
20
-21.532867399020152
10
-237.68269743113808
20
-21.532867399020155
42
-0.41421356237313406
0
LWPOLYLINE
5
149
100
AcDbEntity
8
0
100
AcDbPolyline
90
8
70
1
43
0.0
10
-212.77644743113811
20
-59.632867399020114
10
-225.77644743113808
20
-59.6328673990201
42
-0.41421356237312101
10
-226.27644743113808
20
-59.132867399020121
10
-226.27644743113805
20
-46.132867399020121
42
-0.4142135623730222
10
-225.77644743113808
20
-45.632867399020121
10
-212.77644743113811
20
-45.632867399020128
42
-0.41421356237312623
10
-212.27644743113811
20
-46.132867399020121
10
-212.27644743113814
20
-59.132867399020121
42
-0.4142135623730222
0
LWPOLYLINE
5
150
100
AcDbEntity
8
0
100
AcDbPolyline
90
8
70
1
43
0.0
10
-226.56394743113808
20
-65.182867399020111
10
-226.56394743113808
20
-78.182867399020097
42
-0.41421356237307944
10
-227.06394743113808
20
-78.682867399020097
10
-240.0639474311381
20
-78.682867399020097
42
-0.41421356237312623
10
-240.5639474311381
20
-78.182867399020097
10
-240.56394743113813
20
-65.182867399020111
42
-0.41421356237312623
10
-240.0639474311381
20
-64.682867399020111
10
-227.06394743113808
20
-64.682867399020111
42
-0.41421356237313667
0
LWPOLYLINE
5
151
100
AcDbEntity
8
0
100
AcDbPolyline
90
8
70
1
43
0.0
10
-249.70719743113807
20
-39.582867399020131
42
0.41421356237308204
10
-249.20719743113807
20
-39.082867399020131
10
-249.20719743113807
20
-26.082867399020138
42
0.41421356237313145
10
-249.70719743113807
20
-25.582867399020142
10
-255.45719743113807
20
-25.582867399020142
42
0.41421356237304563
10
-255.95719743113807
20
-26.082867399020138
10
-255.95719743113807
20
-39.082867399020131
42
0.41421356237310281
10
-255.45719743113807
20
-39.582867399020131
0
LWPOLYLINE
5
152
100
AcDbEntity
8
0
100
AcDbPolyline
90
8
70
1
43
0.0
10
-55.613947431138243
20
-78.682867399020097
10
-68.613947431138229
20
-78.682867399020111
42
-0.41421356237311585
10
-69.113947431138243
20
-78.182867399020097
10
-69.113947431138229
20
-65.182867399020111
42
-0.41421356237310542
10
-68.613947431138229
20
-64.682867399020111
10
-55.613947431138243
20
-64.682867399020111
42
-0.41421356237310542
10
-55.11394743113825
20
-65.182867399020111
10
-55.113947431138257
20
-78.182867399020097
42
-0.41421356237307422
0
LWPOLYLINE
5
153
100
AcDbEntity
8
0
100
AcDbPolyline
90
8
70
1
43
0.0
10
-135.28894743113815
20
-83.732867399020108
10
-122.2889474311382
20
-83.732867399020108
42
-0.41421356237309503
10
-121.78894743113818
20
-84.232867399020108
10
-121.78894743113818
20
-97.23286739902008
42
-0.41421356237309503
10
-122.2889474311382
20
-97.73286739902008
10
-135.28894743113815
20
-97.73286739902008
42
-0.41421356237307422
10
-135.78894743113815
20
-97.23286739902008
10
-135.78894743113815
20
-84.232867399020108
42
-0.41421356237307422
0
LWPOLYLINE
5
154
100
AcDbEntity
8
0
100
AcDbPolyline
90
8
70
1
43
0.0
10
-173.38894743113815
20
-83.732867399020108
42
0.41421356237313667
10
-173.88894743113815
20
-84.232867399020108
10
-173.88894743113815
20
-97.23286739902008
42
0.41421356237313667
10
-173.38894743113815
20
-97.73286739902008
10
-160.38894743113818
20
-97.73286739902008
42
0.41421356237312623
10
-159.88894743113815
20
-97.23286739902008
10
-159.88894743113815
20
-84.232867399020108
42
0.41421356237309503
10
-160.38894743113818
20
-83.732867399020108
0
LWPOLYLINE
5
155
100
AcDbEntity
8
0
100
AcDbPolyline
90
8
70
1
43
0.0
10
-23.370197431138276
20
-7.5328673990201693
42
0.41421356237309048
10
-23.870197431138266
20
-8.0328673990201587
10
-23.870197431138273
20
-21.032867399020155
42
0.41421356237309503
10
-23.370197431138276
20
-21.532867399020152
10
-10.370197431138287
20
-21.532867399020152
42
0.41421356237309631
10
-9.870197431138287
20
-21.032867399020155
10
-9.8701974311382852
20
-8.0328673990201587
42
0.41421356237309243
10
-10.370197431138287
20
-7.5328673990201693
0
LWPOLYLINE
5
156
100
AcDbEntity
8
0
100
AcDbPolyline
90
8
70
1
43
0.0
10
-264.66394743113807
20
-84.232867399020108
10
-264.66394743113801
20
-97.23286739902008
42
-0.41421356237313667
10
-265.16394743113801
20
-97.73286739902008
10
-278.16394743113801
20
-97.732867399020108
42
-0.41421356237310542
10
-278.66394743113807
20
-97.23286739902008
10
-278.66394743113801
20
-84.232867399020108
42
-0.41421356237310542
10
-278.16394743113801
20
-83.732867399020108
10
-265.16394743113801
20
-83.732867399020165
42
-0.41421356237311585
0
LWPOLYLINE
5
157
100
AcDbEntity
8
0
100
AcDbPolyline
90
8
70
1
43
0.0
10
-335.3139474311381
20
-26.582867399020142
42
0.41421356237311063
10
-335.81394743113805
20
-27.082867399020142
10
-335.81394743113805
20
-40.082867399020124
42
0.4142135623730222
10
-335.3139474311381
20
-40.582867399020131
10
-322.31394743113805
20
-40.582867399020131
42
0.41421356237318868
10
-321.81394743113805
20
-40.082867399020131
10
-321.81394743113805
20
-27.082867399020145
42
0.4142135623730222
10
-322.31394743113805
20
-26.582867399020145
0
LWPOLYLINE
5
158
100
AcDbEntity
8
0
100
AcDbPolyline
90
8
70
1
43
0.0
10
-286.97694743113806
20
-96.23286739902008
10
-286.976947431138
20
-83.232867399020094
42
-0.41421356237307422
10
-286.476947431138
20
-82.732867399020108
10
-280.72694743113806
20
-82.73286739902008
42
-0.41421356237313667
10
-280.226947431138
20
-83.232867399020094
10
-280.226947431138
20
-96.23286739902008
42
-0.41421356237307422
10
-280.72694743113806
20
-96.73286739902008
10
-286.476947431138
20
-96.73286739902008
42
-0.4142135623730846
0
LWPOLYLINE
5
159
100
AcDbEntity
8
0
100
AcDbPolyline
90
8
70
1
43
0.0
10
-322.31394743113805
20
-78.682867399020097
10
-335.3139474311381
20
-78.682867399020097
42
-0.4142135623730222
10
-335.81394743113805
20
-78.182867399020097
10
-335.81394743113805
20
-65.182867399020111
42
-0.41421356237310542
10
-335.3139474311381
20
-64.682867399020111
10
-322.31394743113805
20
-64.682867399020125
42
-0.4142135623730222
10
-321.81394743113805
20
-65.182867399020111
10
-321.81394743113805
20
-78.182867399020097
42
-0.4142135623731939
0
LWPOLYLINE
5
160
100
AcDbEntity
8
0
100
AcDbPolyline
90
8
70
1
43
0.0
10
-284.30769743113808
20
-70.720867399020108
42
0.4142135623730846
10
-284.80769743113802
20
-71.220867399020108
10
-284.80769743113808
20
-76.970867399020108
42
0.41421356237312623
10
-284.30769743113808
20
-77.470867399020094
10
-271.30769743113808
20
-77.470867399020094
42
0.41421356237307944
10
-270.80769743113808
20
-76.970867399020108
10
-270.80769743113808
20
-71.220867399020108
42
0.41421356237313145
10
-271.30769743113808
20
-70.720867399020108
0
LWPOLYLINE
5
161
100
AcDbEntity
8
0
100
AcDbPolyline
90
8
70
1
43
0.0
10
-316.76394743113804
20
-97.23286739902008
42
0.41421356237313667
10
-316.26394743113804
20
-97.73286739902008
10
-303.26394743113804
20
-97.73286739902008
42
0.41421356237313667
10
-302.76394743113804
20
-97.23286739902008
10
-302.76394743113804
20
-84.232867399020108
42
0.41421356237313667
10
-303.26394743113804
20
-83.732867399020108
10
-316.26394743113804
20
-83.732867399020108
42
0.41421356237313667
10
-316.76394743113804
20
-84.232867399020108
0
LWPOLYLINE
5
162
100
AcDbEntity
8
0
100
AcDbPolyline
90
8
70
1
43
0.0
10
-354.363947431138
20
-7.5328673990201489
10
-341.36394743113806
20
-7.5328673990201178
42
-0.41421356237309243
10
-340.863947431138
20
-8.0328673990201551
10
-340.86394743113806
20
-21.032867399020148
42
-0.4142135623731939
10
-341.36394743113806
20
-21.532867399020148
10
-354.363947431138
20
-21.532867399020191
42
-0.41421356237309503
10
-354.86394743113806
20
-21.032867399020148
10
-354.86394743113812
20
-8.0328673990201551
42
-0.41421356237313534
0
LWPOLYLINE
5
163
100
AcDbEntity
8
0
100
AcDbPolyline
90
8
70
1
43
0.0
10
-164.36394743113817
20
-78.182867399020097
42
0.41421356237313667
10
-163.86394743113814
20
-78.682867399020111
10
-150.86394743113817
20
-78.682867399020097
42
0.41421356237311063
10
-150.3639474311382
20
-78.182867399020097
10
-150.36394743113817
20
-65.182867399020111
42
0.41421356237310025
10
-150.86394743113817
20
-64.682867399020111
10
-163.86394743113814
20
-64.682867399020111
42
0.41421356237313667
10
-164.36394743113817
20
-65.182867399020111
0
LWPOLYLINE
5
164
100
AcDbEntity
8
0
100
AcDbPolyline
90
8
70
1
43
0.0
10
-159.60144743113815
20
-40.082867399020131
42
0.41421356237310025
10
-159.10144743113815
20
-40.582867399020152
10
-146.10144743113815
20
-40.582867399020131
42
0.41421356237310542
10
-145.60144743113815
20
-40.082867399020131
10
-145.60144743113815
20
-27.082867399020145
42
0.41421356237307161
10
-146.10144743113815
20
-26.582867399020145
10
-159.10144743113815
20
-26.582867399020145
42
0.41421356237310542
10
-159.60144743113813
20
-27.082867399020145
0
LWPOLYLINE
5
165
100
AcDbEntity
8
0
100
AcDbPolyline
90
8
70
1
43
0.0
10
-25.751447431138278
20
-64.682867399020111
10
-12.751447431138285
20
-64.682867399020111
42
-0.41421356237309631
10
-12.251447431138285
20
-65.182867399020111
10
-12.251447431138294
20
-78.182867399020097
42
-0.41421356237308593
10
-12.751447431138285
20
-78.682867399020097
10
-25.751447431138278
20
-78.682867399020097
42
-0.41421356237309764
10
-26.251447431138274
20
-78.182867399020097
10
-26.251447431138281
20
-65.182867399020111
42
-0.41421356237310281
0
LWPOLYLINE
5
166
100
AcDbEntity
8
0
100
AcDbPolyline
90
8
70
1
43
0.0
10
-83.401447431138223
20
-40.082867399020131
42
0.41421356237309503
10
-82.901447431138223
20
-40.582867399020124
10
-69.901447431138237
20
-40.582867399020131
42
0.41421356237310542
10
-69.401447431138237
20
-40.082867399020131
10
-69.401447431138237
20
-27.082867399020145
42
0.41421356237309764
10
-69.901447431138237
20
-26.582867399020145
10
-82.901447431138223
20
-26.582867399020145
42
0.41421356237310025
10
-83.401447431138223
20
-27.082867399020145
0
LWPOLYLINE
5
167
100
AcDbEntity
8
0
100
AcDbPolyline
90
8
70
1
43
0.0
10
-36.063947431138267
20
-65.182867399020111
10
-36.063947431138281
20
-78.182867399020097
42
-0.41421356237308204
10
-36.563947431138267
20
-78.682867399020097
10
-49.563947431138253
20
-78.682867399020097
42
-0.4142135623730846
10
-50.063947431138239
20
-78.182867399020097
10
-50.063947431138246
20
-65.182867399020111
42
-0.41421356237309503
10
-49.563947431138253
20
-64.682867399020111
10
-36.563947431138267
20
-64.682867399020125
42
-0.41421356237309764
0
LWPOLYLINE
5
168
100
AcDbEntity
8
0
100
AcDbPolyline
90
8
70
1
43
0.0
10
-354.363947431138
20
-64.682867399020111
10
-341.36394743113806
20
-64.682867399020125
42
-0.4142135623730222
10
-340.86394743113806
20
-65.182867399020111
10
-340.86394743113806
20
-78.182867399020097
42
-0.4142135623731939
10
-341.36394743113806
20
-78.682867399020097
10
-354.363947431138
20
-78.682867399020125
42
-0.4142135623730846
10
-354.86394743113806
20
-78.182867399020097
10
-354.863947431138
20
-65.182867399020111
42
-0.41421356237318868
0
LWPOLYLINE
5
169
100
AcDbEntity
8
0
100
AcDbPolyline
90
8
70
1
43
0.0
10
-302.76394743113804
20
-65.182867399020111
10
-302.76394743113804
20
-78.182867399020097
42
-0.41421356237307944
10
-303.26394743113804
20
-78.682867399020097
10
-316.26394743113804
20
-78.682867399020111
42
-0.41421356237313667
10
-316.76394743113804
20
-78.182867399020097
10
-316.76394743113809
20
-65.182867399020111
42
-0.41421356237307422
10
-316.26394743113804
20
-64.682867399020111
10
-303.26394743113804
20
-64.682867399020111
42
-0.41421356237313667
0
LWPOLYLINE
5
170
100
AcDbEntity
8
0
100
AcDbPolyline
90
8
70
1
43
0.0
10
-211.98894743113814
20
-97.23286739902008
10
-211.98894743113812
20
-84.232867399020108
42
-0.41421356237310542
10
-211.48894743113814
20
-83.732867399020108
10
-198.48894743113814
20
-83.732867399020108
42
-0.41421356237313667
10
-197.98894743113812
20
-84.232867399020108
10
-197.98894743113812
20
-97.23286739902008
42
-0.41421356237313667
10
-198.48894743113814
20
-97.73286739902008
10
-211.48894743113814
20
-97.732867399020108
42
-0.41421356237310542
0
LWPOLYLINE
5
171
100
AcDbEntity
8
0
100
AcDbPolyline
90
8
70
1
43
0.0
10
-187.67644743113812
20
-45.632867399020121
10
-174.67644743113817
20
-45.632867399020128
42
-0.41421356237312623
10
-174.17644743113814
20
-46.132867399020121
10
-174.17644743113817
20
-59.132867399020121
42
-0.4142135623730222
10
-174.67644743113817
20
-59.632867399020114
10
-187.67644743113812
20
-59.6328673990201
42
-0.41421356237312101
10
-188.17644743113814
20
-59.132867399020121
10
-188.17644743113812
20
-46.132867399020121
42
-0.4142135623730222
0
LWPOLYLINE
5
172
100
AcDbEntity
8
0
100
AcDbPolyline
90
8
70
1
43
0.0
10
-193.7264474311381
20
-59.632867399020114
42
0.4142135623730222
10
-193.22644743113813
20
-59.132867399020121
10
-193.2264474311381
20
-46.132867399020121
42
0.41421356237312623
10
-193.7264474311381
20
-45.632867399020121
10
-206.7264474311381
20
-45.632867399020121
42
0.41421356237307422
10
-207.22644743113813
20
-46.132867399020121
10
-207.22644743113813
20
-59.132867399020121
42
0.41421356237313145
10
-206.7264474311381
20
-59.632867399020114
0
LWPOLYLINE
5
173
100
AcDbEntity
8
0
100
AcDbPolyline
90
8
70
1
43
0.0
10
-245.32644743113809
20
-59.132867399020121
10
-245.32644743113806
20
-46.132867399020121
42
-0.4142135623730222
10
-244.82644743113809
20
-45.632867399020121
10
-231.82644743113809
20
-45.632867399020114
42
-0.41421356237313667
10
-231.32644743113809
20
-46.132867399020121
10
-231.32644743113804
20
-59.132867399020121
42
-0.41421356237307422
10
-231.82644743113809
20
-59.632867399020114
10
-244.82644743113809
20
-59.6328673990201
42
-0.41421356237312101
0
LWPOLYLINE
5
174
100
AcDbEntity
8
0
100
AcDbPolyline
90
8
70
1
43
0.0
10
-97.188947431138203
20
-83.732867399020108
10
-84.188947431138217
20
-83.732867399020122
42
-0.41421356237313667
10
-83.688947431138217
20
-84.232867399020108
10
-83.688947431138203
20
-97.23286739902008
42
-0.41421356237309503
10
-84.188947431138217
20
-97.73286739902008
10
-97.188947431138203
20
-97.73286739902008
42
-0.41421356237312623
10
-97.688947431138189
20
-97.23286739902008
10
-97.688947431138203
20
-84.232867399020108
42
-0.41421356237307422
0
LWPOLYLINE
5
175
100
AcDbEntity
8
0
100
AcDbPolyline
90
8
70
1
43
0.0
10
-46.088947431138251
20
-97.73286739902008
10
-59.088947431138251
20
-97.73286739902008
42
-0.41421356237310542
10
-59.588947431138244
20
-97.23286739902008
10
-59.588947431138266
20
-84.232867399020108
42
-0.41421356237310025
10
-59.088947431138251
20
-83.732867399020108
10
-46.088947431138251
20
-83.732867399020108
42
-0.41421356237308982
10
-45.588947431138251
20
-84.232867399020108
10
-45.588947431138244
20
-97.23286739902008
42
-0.41421356237309503
0
LWPOLYLINE
5
176
100
AcDbEntity
8
0
100
AcDbPolyline
90
8
70
1
43
0.0
10
-23.370197431138276
20
-26.582867399020145
42
0.41421356237309503
10
-23.870197431138273
20
-27.082867399020145
10
-23.870197431138273
20
-40.082867399020131
42
0.41421356237309764
10
-23.370197431138276
20
-40.582867399020131
10
-10.370197431138287
20
-40.582867399020131
42
0.41421356237309764
10
-9.870197431138287
20
-40.082867399020131
10
-9.870197431138287
20
-27.082867399020145
42
0.41421356237309631
10
-10.370197431138287
20
-26.582867399020145
0
LWPOLYLINE
5
177
100
AcDbEntity
8
0
100
AcDbPolyline
90
8
70
1
43
0.0
10
-102.73894743113821
20
-84.232867399020108
10
-102.7389474311382
20
-97.23286739902008
42
-0.41421356237307422
10
-103.2389474311382
20
-97.73286739902008
10
-116.2389474311382
20
-97.73286739902008
42
-0.41421356237309503
10
-116.7389474311382
20
-97.23286739902008
10
-116.7389474311382
20
-84.232867399020108
42
-0.41421356237309503
10
-116.2389474311382
20
-83.732867399020108
10
-103.2389474311382
20
-83.732867399020108
42
-0.41421356237312623
0
LWPOLYLINE
5
178
100
AcDbEntity
8
0
100
AcDbPolyline
90
8
70
1
43
0.0
10
-183.41394743113813
20
-78.182867399020097
42
0.41421356237312623
10
-182.91394743113813
20
-78.682867399020097
10
-169.91394743113815
20
-78.682867399020097
42
0.41421356237307422
10
-169.41394743113815
20
-78.182867399020097
10
-169.41394743113815
20
-65.182867399020111
42
0.41421356237312623
10
-169.91394743113815
20
-64.682867399020111
10
-182.91394743113813
20
-64.682867399020111
42
0.4142135623730222
10
-183.41394743113813
20
-65.182867399020111
0
LWPOLYLINE
5
179
100
AcDbEntity
8
0
100
AcDbPolyline
90
8
70
1
43
0.0
10
-88.951447431138206
20
-40.582867399020131
10
-101.95144743113818
20
-40.582867399020152
42
-0.41421356237307944
10
-102.45144743113821
20
-40.082867399020131
10
-102.45144743113819
20
-27.082867399020145
42
-0.41421356237310025
10
-101.95144743113821
20
-26.582867399020145
10
-88.951447431138206
20
-26.582867399020142
42
-0.41421356237309243
10
-88.451447431138206
20
-27.082867399020145
10
-88.451447431138206
20
-40.082867399020131
42
-0.41421356237310542
0
CIRCLE
5
180
100
AcDbEntity
8
0
100
AcDbCircle
10
-328.7751878806497
20
-52.599998824298382
30
0
40
2.5
210
0
220
-0
230
1
0
CIRCLE
5
181
100
AcDbEntity
8
0
100
AcDbCircle
10
-321.59999281167984
20
-52.599998824298382
30
0
40
2.5
210
0
220
-0
230
1
0
CIRCLE
5
182
100
AcDbEntity
8
0
100
AcDbCircle
10
-335.99999248981476
20
-52.599998824298375
30
0
40
2.5
210
0
220
-0
230
1
0
LWPOLYLINE
5
183
100
AcDbEntity
8
0
100
AcDbPolyline
90
76
70
1
43
0.0
10
-354.90100244114473
20
-36.578233205319329
10
-354.90100244114473
20
-26.575996921744004
10
-340.90100323275004
20
-26.575996921744004
10
-340.90100323275004
20
-40.575996130138101
10
-354.90100244114473
20
-40.575996130138101
10
-354.90100244114473
20
-40.421767942070083
42
-0.17743068958548611
10
-356.52108833706063
20
-40.999911673327141
10
-360.36522788537548
20
-40.999911673327141
10
-360.36522788537548
20
-78.709436030674766
10
-356.49846614752096
20
-78.709436030674752
42
-1.0199214069934424
10
-356.49854548905301
20
-83.708463442213485
10
-360.36522788537548
20
-83.708463442213485
10
-360.36522788537548
20
-101.45686385638605
42
0.41421356237309503
10
-358.86522788537548
20
-102.95686385638604
10
-328.86522788537548
20
-102.95686385638605
10
-328.86522788537548
20
-105.95686385638606
42
0.41421356237307771
10
-327.36522788537548
20
-107.45686385638609
10
-280.9652278853755
20
-107.45686385638606
42
0.41421356237310197
10
-279.4652278853755
20
-105.95686385638606
10
-279.4652278853755
20
-102.95686385638605
10
-202.69818888305446
20
-102.95686385638605
10
-202.69818888305446
20
-105.95686385638608
42
0.41421356237311935
10
-201.1981888830544
20
-107.45686385638608
10
-154.79818888305476
20
-107.45686385638606
42
0.41421356237308815
10
-153.29818888305473
20
-105.95686385638608
10
-153.29818888305476
20
-102.95686385638605
10
-82.698188883053888
20
-102.95686385638605
10
-82.698188883053859
20
-105.95686385638608
42
0.41421356237308815
10
-81.198188883053831
20
-107.45686385638605
10
-34.798188883054593
20
-107.45686385638606
42
0.41421356237309853
10
-33.298188883054607
20
-105.95686385638606
10
-33.298188883054607
20
-102.95686385638605
10
-3.2981888830550865
20
-102.95686385638605
42
0.41421356237308943
10
-1.7981888830550763
20
-101.45686385638605
10
-1.7981888830550834
20
-83.630096112245155
10
-6.8183269840640071
20
-83.630096112245155
10
-6.8183269840319349
20
-83.626546146511629
42
-0.99999999999999989
10
-6.6420133109175028
20
-78.629655764616814
10
-1.7981888830550841
20
-78.629655764616828
10
-1.798188883055087
20
-25.280130124405922
10
-7.1429272706892419
20
-25.280130123807957
42
-1.0003986612724496
10
-7.1429272706883049
20
-20.280130520976609
10
-1.7981888830550863
20
-20.280130520976609
10
-1.7981888830550854
20
-3.4400905795257541
42
0.41421356237309648
10
-3.2981888830551043
20
-1.9400905795257546
10
-8.0937384824917693
20
-1.9400905795257541
42
-0.81226994891618898
10
-16.902639283618406
20
-1.9400905795257546
10
-33.298188883055055
20
-1.9400905795257546
10
-33.298188883055069
20
1.3599094204742457
42
0.4142135623730952
10
-34.798188883055076
20
2.8599094204742408
10
-81.19818888305511
20
2.8599094204742403
42
0.41421356237309581
10
-82.698188883055138
20
1.359909420474223
10
-82.698188883055082
20
-1.9400905795257539
10
-116.09373848249179
20
-1.9400905795257528
42
-0.81226994891618798
10
-124.9026392836184
20
-1.940090579525753
10
-153.29818888305508
20
-1.940090579525751
10
-153.29818888305508
20
1.3599094204742457
42
0.41421356237309759
10
-154.79818888305508
20
2.8599094204742266
10
-201.19818888305508
20
2.8599094204742497
42
0.41421356237310047
10
-202.69818888305508
20
1.3599094204742324
10
-202.69818888305505
20
-1.9400905795257506
10
-237.26077748481219
20
-1.9400905795257495
42
-0.81226994891619209
10
-246.06967828593883
20
-1.9400905795257444
10
-279.4652278853755
20
-1.9400905795257497
10
-279.4652278853755
20
1.359909420474241
42
0.41421356237309986
10
-280.9652278853755
20
2.8599094204742515
10
-327.36522788537548
20
2.8599094204742386
42
0.414213562373074
10
-328.86522788537548
20
1.3599094204742408
10
-328.86522788537548
20
-1.9400905795257473
10
-345.26077748481219
20
-1.9400905795257473
42
-0.8122699489161922
10
-354.06967828593883
20
-1.9400905795257488
10
-358.86522788537548
20
-1.9400905795257501
42
0.41421356237309537
10
-360.36522788537548
20
-3.4400905795257586
10
-360.36522788537548
20
-35.999999195337296
10
-356.52108833706063
20
-35.999999195337296
10
-356.52108833706063
20
-36.000089474062285
42
-0.17743068958548164
0
CIRCLE
5
184
100
AcDbEntity
8
0
100
AcDbCircle
10
-191.00560286083487
20
-61.156194426469845
30
0
40
2.5
210
0
220
-0
230
1
0
CIRCLE
5
185
100
AcDbEntity
8
0
100
AcDbCircle
10
-191.88629568563039
20
-21.274362413940906
30
0
40
2.5
210
0
220
-0
230
1
0
LWPOLYLINE
5
186
100
AcDbEntity
8
0
100
AcDbPolyline
90
4
70
1
43
0.0
10
-297.45398453621021
20
-94.756863856386076
42
0.99999999999999989
10
-293.33134830543474
20
-94.756863856386076
10
-293.33134830543474
20
-10.140090579525749
42
0.99999999999999989
10
-297.45398453621021
20
-10.14009057952574
0
LWPOLYLINE
5
187
100
AcDbEntity
8
0
100
AcDbPolyline
90
4
70
1
43
0.0
10
-302.80099928353297
20
-40.575996130138101
10
-316.80099849192766
20
-40.575996130138101
10
-316.80099849192766
20
-26.575996921744004
10
-302.80099928353297
20
-26.575996921744004
0
LWPOLYLINE
5
188
100
AcDbEntity
8
0
100
AcDbPolyline
90
4
70
1
43
0.0
10
-307.59266555439729
20
-47.34513346585971
42
0.51298917604257654
10
-307.59266555439723
20
-57.904160672736047
42
-0.61091379785544331
10
-307.72460999884169
20
-58.784079606642436
42
-1.3923991921155761
10
-307.72460999884169
20
-46.465214531953372
42
-0.61091379785542532
0
LWPOLYLINE
5
189
100
AcDbEntity
8
0
100
AcDbPolyline
90
4
70
1
43
0.0
10
-350.10933617028081
20
-57.904160672736076
42
0.51298917604258043
10
-350.10933617028081
20
-47.345133465859696
42
-0.61091379785541977
10
-349.97739172583636
20
-46.46521453195335
42
-1.3923991921155796
10
-349.97739172583636
20
-58.784079606642401
42
-0.61091379785541777
0
ENDSEC
0
SECTION
2
OBJECTS
0
DICTIONARY
5
C
100
AcDbDictionary
3
ACAD_GROUP
350
D
3
ACAD_MLINESTYLE
350
17
0
DICTIONARY
5
D
100
AcDbDictionary
0
DICTIONARY
5
1A
330
C
100
AcDbDictionary
0
DICTIONARY
5
17
100
AcDbDictionary
0
ENDSEC
0
EOF
